<?xml version="1.0" encoding="utf-8"?>
<!-- Generator: Adobe Illustrator 21.1.0, SVG Export Plug-In . SVG Version: 6.00 Build 0)  -->
<svg version="1.1" id="Layer_1" xmlns:amcharts="http://amcharts.com/ammap"
	 xmlns="http://www.w3.org/2000/svg" xmlns:xlink="http://www.w3.org/1999/xlink" x="0px" y="0px" viewBox="0 0 6500 5000"
	 enable-background="new 0 0 6500 5000" xml:space="preserve">
<defs>


		<amcharts:ammap  bottomLatitude="41.363005" leftLongitude="-4.778054" projection="mercator" rightLongitude="9.560176" topLatitude="51.089278">
		</amcharts:ammap>
</defs>
<g>
	<g>
		<path id="FR-A" fill="none" stroke="#000000" stroke-miterlimit="10" d="M4990.502,1138.988l-23.488,12.914l-25.107-17.047
			l-20.492,11.746l-35.486-5.762l-36.6-22.512l-11.866-37.805l-20.313,2.281l3.16-10.133l-27.793,6.527l-24.699,29.91l-47.591-2.965
			l-20.116-18.773l-16.557,22.059l-6.056-40.738l-33.13-17.105l-34.896,5.363l-0.892,31.629l-33.645-5.895l-24.045-61.453
			l-35.83-35.649l11.72-9.957l-20.362-35.449l-40.184-23.75l-32.146,5.07l-32.77-24.891l-69.056,35.461l-21.475-2.137l-4.763-22.367
			l-33.915-2.883l-33.301-34.426l-9.396,12.938l-36.042-5.981l-10.786,22.864l-19.061-12.125l-29.185,17.148l-15.034-52.453
			l-28.357-18.68l-11.826,10.551l6.089-22.93l-21.639-22.789l-35.87,1.719l-25.108-37.301l-34.39-20.043l-50.062,3.82l-1.604-39.691
			l14.307-23.047l-34.341-31.91l17.948-37.406l-7.342-14.535l26.517-38.777l-24.184-17.16l-46.306,45.078l-0.311,48.184
			l-85.621,31.348l-47.459-17.153l-27.09,5.668l0,0l7.407,48.758l-16.417,47.493l15.234,12.351l-43.012,42.387l-3.896,24.117
			l-31.868,5.941l18.93,27.246l-14.404,112.742l-39.291-24.781l-23.758,14.133l-1.531,18.855l-25.542-6.121l-46.138,22.789
			l2.991,53.586l32.876,28.609l-43.969,4.512l-7.452,16.332l12.98,22.469l-18.435,21.285l22.788-3.285l9.428,15.281l-67.011,85.5
			l0,0l0.594,20.133l-29.09,2.738l13.912,9.637l-17.08,16.785l25.707,10.625l-6.02,53.965l28.979-5.887l8.731,15.648l-32.985,24.078
			l5.606,15.145l-25.919,7.172l10.958,19.586l-18.994,5.645l10.994,47.012l0,0l4.833,16.547l26.345-4.184l40.105,51.074
			l-13.844,43.836l17.891-2.758l12.833,25.957l28.251-13.359l-3.028,17.316l17.96,7.637l28.043,53.414l-6.989,16.531l14.923-9.594
			l6.535,11.305l-6.498,26.109l52.148,2.117l5.397-10.672l17.396,10.25l19.862-17.395l12.243,9.375l8.355-15.848l6.404,21.699
			l16.704,2.641l7.541-18.848l83.608-3.469l-6.507-20.004l14.854-11.719l74.621,12.039l-2.921,22.539l28.046,11.391l-11.76,16.359
			l24.92-6.371l31.034,58.578l-26.664,21.113l15.034,2.629l3.404,39.246l20.951-12.57l30.961,33.02l21.18-17.41l-1.702,14.48
			l29.79,15.441l-1.784,23.504l23.586-18.512l11.45,11.008l22.53-44.367l36.754,1.949l14.608-17.77l10.197,18.184l32.654-6.488
			l0.082-70.168l17.604,0.418l6.679-20.41l23.315,3.766l36.633-64.688l5.843,21.547l31.378-35.02l33.193-8.25l23.931,45.293l0,0l0,0
			l0,0l64.367-14.816l30.993,38.824l44.815-30.742l89.909,84.062l51.977,20.438l11.434,31.395l-14.912,41.023l28.104,4.789
			l16.172,46.191l0,0l24.111,4.566l-11.049,25.754l25.461,11.59l49.815-5.59l24.044-19.902l-8.42-12.422l19.943,6.621l14.633-23.312
			l-10.959-5.957l29.3-18.559l-24.921-62.645l12.67-18.711l3.027-75.09l22.857-48.133l-18.355-32.301l2.537-44.859l40.461-94.426
			l17.955-13.25l-4.279-35.078l37.082-129.199l46.174-61.078l40.879-23.789l48.041-90.797l-9.633,3.645L4990.502,1138.988z"/>
		<path id="FR-B" fill="none" stroke="#000000" stroke-miterlimit="10" d="M1791.314,2715.453l25.846,52.754l-15.136,42.469
			l-13.221-40.473l-40.994-36.336l-9.215-46.684L1791.314,2715.453z M1770.086,2637.926l24.74-8.602l-39.832-23.152l-20.845,3.766
			l4.317-14.492l-29.876,8.91l0.487-22.398l-21.782,6.164l9.33,21.504L1770.086,2637.926z M3023.582,2500.188l2.438,19.258
			l16.213,4.625l-11.024,14.574l62.689,31.629l41.575,122.715l3.404,31.449l-16.352,7.637l-2.737,21.441l-58.52,43.98l47.037,57.266
			l-0.663,33.75l-21.053,22.859l19.629,20.762l-10.508,66.824l14.154,13.379l-16.663,10.918l-45.92-20.699l3.937,37.172
			l-57.722,56.824l13.324,27.645l-18.337,13.969l-2.295,27.023l-25.878,10.895l15.443,28.711l-28.357,12.496l0,0l-39.382,11.562
			l-13.814-12.391l-36.837,26.895l-59.391-53.918l-33.367-7.02l-43.661,20.656l10.93,61.969l-49.305,40.73l6.097,27.195
			l-58.278,34.242l-15.169,47.008l-42.659,14.266l27.621,86.172l-41.747,9.934l-15.721-17.398l-9.396,34.371l28.284,17.246
			l-15.312,40.402l-18.545,3.145l14.162,22.285l-36.496-2.758l3.061,15.695l-47.107,41.836l-24.633-27.023l-101.83,43.418
			l-24.212-15.102l-25.887,23.719l-10.332-13.879l-24.773,19.461l1.183,31.434l-27.834-15.828l9.674-11.988l-14.961-14.602
			l-20.697,26.875l-29.123-5.195l-20.874,20.074l18.537,14.047l-2.463,28.02l-11.523,0.867l11.102,34.047l-19.208,14.445
			l-10.397,42.605l14.228,17.09l49.436,0.285l27.138,52.559l-16.527,4.297l-0.495,24.918l23.136-16.465l10.578,47.285
			l-26.406,21.402l10.058,14.715l-19.412,22.703l1.846,21.875l-17.224-1.422l-26.336,31.254l4.526,29.617l-37.614,22.008
			l-8.875,73.801l0,0l-28.353,23.875l-38.825-13.422l-15.931,23.34l-62.661-56.168l-7.685-33.848l-65.86,6.965l-59.461-33.555
			l-9.707,7.586l-57.959-28.699l13.287-23.688l-25.501,11.344l-3.368,31.363l-29.962-8.398l-11.515-19.977l31.729-47.887
			l-2.267-32.684l-50.933-17.098l-25.469,19.953l-5.565-26.191l-36.529,5.059l-20.047-25.984l-0.626-11.098l42.168-7.117
			l23.415-21.379l53.479-102.586l52.042-270.891l13.884-161.234l21.913-55.863l65.963,11.164l-22.719-29.348l12.424-0.191
			l-46.412-38.707l-27.621,78.395l-5.291-8.676l36.39-413.941l33.358-48.555l-1.98,30.648l91.292,81.777l40.151,127.25
			l36.951,35.293l-29.045-53.523l-40.54-165.516l-65.091-49.34l-18.61-30.82l-73.902-34.578l-0.516-46.453l36.042-8.406
			l-15.722-25.082l22.122-2.832l13.888-24.316l-6.989-42.391l14.96-4.953l-26.651-62.117l-15.685-5.41l8.242-9.664l-30.608-3.305
			l44.32-48.254l-1.706-28.461l0,0l64.776-27.379l-10.991,24.363l10.328,6.223l46.027-16.062l27.036,19.988l63.532-41.703
			l-23.173-14.578l-12.419,8.094l9.363-112.879l-14.891-7.375l7.505-13.695l-28.877-46.531l7.451-27.355l-46.244-37.98l8.037-18.332
			l-30.723-27.277l37.745-15.711l65.476,4.273l19.208-18.109l-4.415-16.082l21.438-9.883l12.211,0.965l-7.554,14.355l29.434-19.246
			l73.897-8.719l14.403,2.496l-12.701,16.965l17.33,8.195l14.96-23.734l17.428,7.234l10.16-37.562l21.64-2.043l0,0l9.116,22.844
			l35.351,2.039l-1.149,28.625l43.343,4.02l7.1,61.422l95.503-13.453l-10.578-24.91l43.036,16.465l4.448,35.812l72.44,89.391
			l-0.872,63.527l36.079,17.203l1.919,15.539l25.403-0.203l0,0l41.464,51.785l0,0l-7.509,28.719l39.382,2.562l17.571-14.23
			l21.327,27l38.518-40.523l6.576,17.148l22.478-14.496l6.649,16.754l19.826-15.281l15.104,14.176l18.786-33.305l19.482,15.504
			l48.642-8.707l38.133,16.602L3023.582,2500.188z"/>
		<path id="FR-C" fill="none" stroke="#000000" stroke-miterlimit="10" d="M4700.314,2974.328l-34.651-17.512l-0.114-66.824
			l-29.438-5.906l-37.638-36.73l4.591-55.391l41.992-5.023l35.944-38.164l-37.303-69.988l-22.162,5.801l8.839-36.41l-35.241-6.496
			l23.521-71.512l-32.662-37.41l17.227-36.051l-104.787-15.047l-92.791,48.73l-11.171,24.215l13.986,30.363l16.974-2.355
			l-4.943,15.492l-58.098,42.77l-59.457,5.664l7.856-44.227l50.209-17.242l-7.759-17.113l23.578-41.133l-36.64-24.742l0,0
			l-67.936,75.953l-50.168,1.953l-4.002-24.285l-24.667-17.773l-36.182,38.203l-22.686,2.102l-2.472-29.855l-10.319,4.215
			l-4.42-16.324l-7.096,18.789l-9.297-36.07l-27.089-15.488l5.394-16.711l-27.352-5.84l-11.72-25.535l-50.487,12.395l-39.971-17.441
			l-56.388,172.031l-18.823-1.852l3.585-26.711l-19.69-12.844l10.852-9.875l-10.713-13.809l-21.434,20.375l-17.358-14.254
			l-22.408,13.199l-34.233-14.148l-11.482,55.113l-31.873,14.418l-25.501-18.73l-75.919,12.625l-5.807-16.734l-28.636-5.867
			l0.274-35.512l39.455-21.234l-1.735-67.578l-17.26-15.664l-28.146,2.465l-10.475-21.82l-33.739-3.633l-1.943-32.039
			l-38.936-77.285l-12.595-3.492l-9.748,36.781l-36.177,18.957l-12.628-31.594l-25.645,15.172l-27.004-16.688l-24.143,20.531
			l-58.589-59.914l0,0l-38.449,1.016l-25.918,33.969l-29.708,4.445l-15.767-14.312l-31.795,27.824l1.28,15.977l-20.145-0.102
			l15.521,53.355l-27.204,17.293l-61.126,1.211l-27.94,48.742l0,0l2.438,19.258l16.213,4.625l-11.024,14.574l62.689,31.629
			l41.575,122.715l3.404,31.449l-16.352,7.637l-2.737,21.441l-58.52,43.98l47.038,57.266l-0.659,33.75l-21.053,22.859l19.625,20.762
			l-10.508,66.82l14.154,13.391l-16.663,10.91l-45.921-20.699l3.937,37.172l-57.722,56.816l13.324,27.652l-18.336,13.969
			l-2.295,27.023l-25.878,10.902l15.444,28.691l-28.358,12.508l0,0l10.328,50.051l28.01,41.406l-14.612,44.914l27.208,38.848
			l2.615-15.738l27.764-9.363l19.94,13.602l45.781-4.965l26.549-33.801l15.484-61.398l46.06-46.793l12.489,41.801l30.133-9.051
			l42.483,112.27l42.304-118.039l9.771-8.566l20.983,20.113l17.392-35.73l15.275,4.266l29.712-23.668l40.114,82.559l35.592-9.527
			l1.702-24.297l21.054-0.105l4.411,23.078l26.721-4.543l45.99,47.836l9.604,71.086l57.726,91.77l-7.275,41.852l28.46-8.527
			l44.292,34.684l24.045-35.504l22.857-3.984l1.252,27.137l14.715,3.488l5.287-26.738l18.128-2.578l50.11,35.461l0,0l0.418-28.816
			l48.007,8.098l10.582,41.539l83.805-38.832l16.916,14.582l20.321-18.117l-5.074,40.191l70.596,8.66l9.706,28.578l25.043,17.383
			l30.101-6.426l20.935-28.375l14.411,9.578l15.035-11.941l0.065-34.258l-27.351-19.039l7.414-13.23l-47.344-2.031l-21.844-17.988
			l-3.944-24.406l27.392-5.824l-13.953-30.07l54.275,13.457l17.358-14.969l-23.267-20.23l16-52.445l50.97-0.777l14.265-18.047
			l-10.959-7.797l9.764-25.93l43.18-0.48l10.164-10.305l-10.713-11.383l23.726-15.051l13.495,9.574l26.967-23.609l39.447,6.062
			l15.353-10.762l22.358,9.297l-11.089-70.473l-41.575-8.527l14.33-51.305l30.519-1.336l10.958,26.027l29.986,8.938l20.673-28.188
			l41.854,0.156l0,0l47.565-24.379l43.621,11.203l0.073-15.59l18.267-0.688l19.519-24.848l27.94,1.676l18.537-19.352l-8.659-35.234
			l22.548-40.566l-21.051-11.613L4700.314,2974.328z"/>
		<path id="FR-D" fill="none" stroke="#000000" stroke-miterlimit="10" d="M3290.332,1506.133l-11.139,28.336l11.171,28.871
			l-38.342,45.078l0,0l32.18,15.492l7.034,31.168l26.127,22.527l1.117,29.602l-41.301,34.531l5.631,61.656l-60.398,15.23
			l-1.391,20.941l27.281,18.09l17.465,57.891l-44.6,16.094l28.702,51.27l-21.95,51.082l39.631,39.23l12.599,100.695l20.828,20.605
			l-16.139,116.262l0,0l58.59,59.918l24.143-20.535l27.003,16.688l25.646-15.172l12.627,31.598l36.178-18.961l9.747-36.781
			l12.596,3.496l38.935,77.285l1.944,32.035l33.738,3.633l10.476,21.82l28.145-2.465l17.261,15.664l1.735,67.582l-39.455,21.23
			l-0.274,35.512l28.636,5.867l5.807,16.738l75.919-12.621l25.501,18.727l31.873-14.422l11.482-55.109l34.233,14.145l22.407-13.195
			l17.351,14.25l21.442-20.375l10.713,13.809l-10.86,9.879l19.698,12.84l-3.584,26.703l18.814,1.852l56.396-172.02l39.979,17.438
			l50.479-12.395l11.72,25.535l27.351,5.84l-5.401,16.711l27.098,15.488l9.297,36.07l7.096-18.789l4.419,16.328l10.32-4.219
			l2.479,29.859l22.686-2.105l36.174-38.203l24.667,17.773l4.002,24.285l50.168-1.953l67.935-75.949l0,0l32.008-65.016
			l-16.139-15.84l118.906-100.289l4.174-57.738l-11.237-19.809l100.033-62.434l-5.712-15.887l87.847-81.922l-4.239-22.793
			l39.136-23.891l-13.684-20.016l-47.794,10.242l21.262-41.039l21.523-10.668l-6.571-20.734l52.042-4.613l0,0l-16.172-46.195
			l-28.104-4.785l14.911-41.031l-11.441-31.391l-51.968-20.434l-89.91-84.066l-44.815,30.738l-30.993-38.816l-64.367,14.809
			l-23.938-45.285l-33.187,8.246l-31.386,35.023l-5.836-21.547l-36.631,64.684l-23.316-3.766l-6.678,20.414l-17.612-0.418
			l-0.073,70.168l-32.654,6.484l-10.197-18.188l-14.617,17.777l-36.746-1.953l-22.53,44.367l-11.45-11.004l-23.586,18.512
			l1.784-23.504l-29.79-15.449l1.702-14.473l-21.18,17.41l-30.96-33.023l-20.951,12.57l-3.404-39.242l-15.035-2.633l26.656-21.109
			l-31.025-58.582l-24.921,6.371l11.761-16.359l-28.055-11.387l2.93-22.543l-74.622-12.035l-14.862,11.715l6.507,20.008
			l-83.601,3.469l-7.545,18.848l-16.704-2.645l-6.399-21.695l-8.355,15.848l-12.244-9.379l-19.862,17.395l-17.399-10.246
			l-5.393,10.668l-52.153-2.117l6.503-26.105l-6.535-11.309l-14.924,9.598l6.989-16.535l-28.043-53.418l-17.96-7.633l3.024-17.312
			l-28.247,13.355l-12.832-25.953l-17.891,2.758l13.839-43.84l-40.105-51.07l-26.341,4.184l-4.836-16.555L3290.332,1506.133z"/>
		<path id="FR-E" fill="none" stroke="#000000" stroke-miterlimit="10" d="M1100.29,2008.945l64.748,37.574l-4.661,14.27
			l-56.776-8.379L1100.29,2008.945z M1108.359,1239.484l1.776,18.715l46.69-18.922v25.457l25.6-1.574l-11.061,22.594l40.007,12.949
			l-5.737,18.297l44.562,37.895l-1.666,28.07l37.643,20.711l-9.281,16.348l9.812-4.137h10.476l19.208,5.492l25.321-40.773
			l28.145-12.02l-5.188-11.809l17.849-3.988l6.02,12.285l35.273-31.141l12.141,10.617l-18.61,25.359l32.531-12.758l22.269,35.727
			l9.98-21.922l-0.553-8.078l36.386-2.832l26.021,49.82l-4.383,25.5l15.067-21.578l-15.586-24.898l13.635,7.293l-4.702-11.172
			l-21.185-25.133l10.578-23.324l51.518-15.133l-8.695,38.926l31.451,17.84l71.602-15.953l0,0l29.013,76.211l23.382,14.754
			l23.451-4.191l34.819-39.266l63.987,18.695l0,0l0,0l0,0l8.585,93.82l-19.482,32.641l29.467,136.793l-48.188,19.852l-31.836,97.367
			l-80.678-30.371l2.018,16.688l-51.842,20.336l-13.185,27.852l-69.654,0.457l-32.99,19.219l-6.326-11.543l-37.786,22.613
			l-5.708,60.168l-20.632,5.812l-2.198,16.375l-46.96-13.609l-6.58,28.332l-36.877-8.152l-11.965,14.824l0,0l-13.082-1.031
			l-2.157-21.605l21.123-3.184l-23.869-13.348l-106.388,19.52l-33.366-34.367l-44.84-13.055l-28.881,4.785l3.094,27.73
			l12.092,24.062l-17.919-2.262l-6.367-62.883L1087.023,1856l-25.919-0.309l-1.845-12.836l-30.514,7.734l-25.608-35.066
			l-69.76-21.32l-44.292,7.383l-31.795-57.734l-14.928,9.883l5.05,14.891l-59.772-1.145l-15.62,31.215l-61.306,0.098l3.314-47.332
			l-21.884-38.613l-31.205-22.18l-78.628-17.531l7.763-13.281l103.638-22.066l38.76,9.191l13.18-21.141l-16.834-38.543
			l-51.453-18.277l-33.088,35.758l5.389-41.02L622.429,1561l-2.328-13.184l20.386-1.305l-0.552-25.344l13.639-5.379l-1.117,29.785
			l95.569,2.031l4.558-9.953l-31.132-8.238l12.002-8.141l-5.324-16.648l-19.13,18.84l-29.683-0.102l20.21-29.598l-8.201-6.527
			l-63.954,29.965l-25.604-8.926l-31.967,13.57l-1.424-97.277l16.315-21.316l41.538-10.641l23.763-31.738l49.026-0.211
			l-12.288-9.031l31.521-11.922l17.399,6.621l0.106,16.277l34.995-9.555l-9.461-3.57l12.562-14.863l44.292,5.57l17.914-26.855
			l12.939,0.047l-0.593,27.965l13.991,5.984l26.471-5.934l11.028-23.809l62.452,12.352l7.243,5.156l14.33,8.355l11.622-39.43
			l-13.291-32.215l11.237,7.637l17.53-25.188l36.951,20.652L1108.359,1239.484z"/>
		<path id="FR-F" fill="none" stroke="#000000" stroke-miterlimit="10" d="M2752.658,1201.379l33.751,53.23l1.252,91.922
			l64.298,58.441l5.013,45.555l23.726,13.703l21.017-8.73l-0.807,26.715l17.224,2.297l3.757,19.848l-5.467,39.078l66.421-5.477
			l13.782-23.742l14.637,23.793l28.779-18.043l26.614,9.023l6.817,29.191l32.466,17.605l0.172,30.551l-25.718,22.398l91.096,0.262
			l16.97-11.383l-6.228-11.129l21.773-1.043l7.107,20.234l40.912-17.262l0,0l32.18,15.492l7.034,31.168l26.127,22.52l1.117,29.602
			l-41.301,34.531l5.631,61.656l-60.398,15.23l-1.391,20.941l27.281,18.082l17.465,57.898l-44.607,16.094l28.701,51.27
			l-21.949,51.07l39.623,39.238l12.596,100.691l20.84,20.613l-16.139,116.254l0,0l-38.448,1.016l-25.919,33.977l-29.708,4.445
			l-15.767-14.32l-31.787,27.824l1.281,15.973l-20.145-0.102l15.513,53.359l-27.204,17.289l-61.126,1.215l-27.94,48.742l0,0
			l-66.766,4.875l-38.133-16.602l-48.634,8.707l-19.482-15.504l-18.791,33.305l-15.1-14.18l-19.83,15.285l-6.646-16.746
			l-22.477,14.488l-6.568-17.152l-38.518,40.52l-21.328-26.992l-17.571,14.23l-39.381-2.562l7.517-28.711l0,0l-41.477-51.785l0,0
			l-25.391,0.203l-1.919-15.531l-36.079-17.211l0.872-63.527l-72.44-89.395l-4.448-35.809l-43.036-16.465l10.578,24.906
			l-95.503,13.457l-7.1-61.422l-43.343-4.02l1.142-28.625l-35.351-2.039l-9.108-22.848l0,0l7.926-60l36.533-51.184l-10.226-9.117
			l23.901-51.648l-9.539-20.027l13.434-33.879l52.64,17.945l-0.135-37.762l22.919,12.613l51.113-27.133l7.894-10.922l-11.515-12.727
			l40.319-25.281l23.246-33.609l-2.782-35.426l17.534,6.371l13.082-26.699l-2.373-46.438l-15.615-3.84l-1.252-17.328l17.153-1.254
			l-10.336-13.969l13.086-17.555l22.576-2.855l-41.089-28.875l0,0l11.343-10.039l-20.983-56.691l50.176-26.316l21.458-35.426
			l-13.876-18.879l10.644-24.656l-41.509-45.09l0,0l-13.078-28.289l18.897-12.711l0,0l4.415-14.617l55.14-6.57l9.919-15.941
			l18.127,6.211l2.12-22.523l73.378,14.848l13.912-10.535l-3.613-28.07l34.156-19.715l-4.272-27.285L2752.658,1201.379z"/>
		<path id="FR-G" fill="none" stroke="#000000" stroke-miterlimit="10" d="M5283.277,4828.91l10.156-22.5l38.801-21.383
			l-46.73-5.574l-2.357-19.223l-40.363,0.367l24.953-16.73l-6.441-11.988l20.779-4.371l10.894-39.035l-19.102-17.656l-48.843,18.391
			l-5.254-33.309l19.404-1.621l4.068-20.434l30.297-17.359l-16.491-29.281l-41.501-7.383l-2.75-46.781l-11.475-4.352l53.859-13.734
			l-31.483-18.219l3.649-20.68l-21.605,7.457l-2.889-19.371l38.514-18.875l8.626-25.172l-10.853-4.559l24.912-21.957l1.949-27.957
			l21.908,14.641l4.633-22.973l74.146-18.234l38.17-42.582l33.775-1.742l26.721,27.637l16.041-27.973l-12.325-45.863l18.021-43
			l-7.34-33.109l28.905-8.211l14.093,11.852l10.238,84.941l-16.352,62.156l30.199,59.875l9.043,165.488l-3.314,42.969
			l-47.754,69.988l-8.847,142.973l-37.434,22.82l3.126,9.918l10.68-13.945l17.785,4.91l-33.195,29.602l1.629,30.633l-24.11,23.535
			l17.538-0.137l-27.768,22.906l-30.061-13.805l9.428-20.141l-17.628-3.062l3.307-16.965l-13.888,11.285l-14.266-15.402
			l-27.27,0.426l-26.998-13.293l3.822-13.52l-23.178-4.117L5283.277,4828.91z"/>
		<path id="FR-H" fill="none" stroke="#000000" stroke-miterlimit="10" d="M2823.012,1047.238l17.641,29.84l28.075,5.992
			l57.992-6.148l27.519-18.312l31.177,24.84l16.666-8.391l5.009,14.91l28.08-18.68l61.438,42.332l21.606-9.656l10.786,23.633
			l17.219-15.145l35.142,25.098l25.886-18.953l15.165,13.977l40.674-11.277l6.535,10.859l27.494-7.465l1.175-16.855l23.803,5.785
			l18.082,29.648l-8.13,20.051l33.849,38.793l13.954-5.227l8.348,21.441l13.462-10.664l5.328,29.766l27.204,18.078l8.38-7.742l0,0
			l0.594,20.129l-29.082,2.742l13.913,9.637l-17.08,16.785l25.706,10.625l-6.02,53.969l28.979-5.883l8.732,15.648l-32.978,24.066
			l5.606,15.156l-25.919,7.172l10.958,19.586l-18.995,5.645l10.995,47.008l0,0l-127.649,16.082l-11.139,28.336l11.171,28.871
			l-38.342,45.078l0,0l-40.912,17.262l-7.107-20.234l-21.773,1.043l6.228,11.129l-16.97,11.383l-91.096-0.262l25.718-22.398
			l-0.172-30.551l-32.466-17.605l-6.817-29.191l-26.614-9.023l-28.779,18.043l-14.637-23.793l-13.782,23.742l-66.421,5.477
			l5.467-39.078l-3.757-19.848l-17.224-2.297l0.807-26.715l-21.017,8.73l-23.726-13.703l-5.013-45.555l-64.298-58.441l-1.252-91.922
			l-33.751-53.23l0,0l0,0l0,0l0,0l0,0l6.236-20.184l-16.945,1.375l-7.729-41.043l14.031,1.531l7.341-18.48h39.127L2823.012,1047.238
			z"/>
		<path id="FR-I" fill="none" stroke="#000000" stroke-miterlimit="10" d="M3847.835,3560.582l25.034,40.219l-0.376,51.148
			l22.924,7.629l20.182,36.934l-70.497,59.062l8.978,10.484l-13.741,76.43l-49.546-5.613l-20.738,35.078l15.927,5.555l-3.617,11.059
			l-76.648,43.285l-3.687,18.832l0,0l-33.187-12.336l-9.747-31.941l-46.06,3.207l-115.088,77.766l-47.803,55.324l-27.379-11.098
			l-26.443,8.004l-59.497,48.188l-49.228,110.125l-3.31,111.629l6.19,76.504l32.811,11.902l12.595,36.238l-31.877,6.293
			l-18.577-23.211l-56.679,3.617l-24.772,23.023l-43.765,6.758l-0.352,29.707l-66.037,0.23l-17.08-24.961l-61.294-20.941
			l-35.245,6.758l-48.367,35.398l-28.636-49.203l-71.536-19.824l3.236-28.551l19.662-12.188l-24.077-4.094l3.413-12.57
			l-84.132-17.102l-19.584,23.684l-28.08-54.816l-65.021,5.008l-31.386-37.621l-53.262-0.387l-75.882-34.324l-22.163,37.059
			l10.647,43.383l-88.158,0.18l-21.704-15.656l-22.866,23.875l-41.121-29.914l-81.067,21.141l-35.94-49.898l-53.057-24.34l0,0
			l8.875-73.805l37.61-22.004l-4.522-29.621l26.336-31.262l17.223,1.426l-1.845-21.867l19.413-22.703l-10.059-14.715l26.406-21.41
			l-10.578-47.277l-23.137,16.465l0.496-24.922l16.528-4.305l-27.139-52.547l-49.436-0.289l-14.228-17.086l10.397-42.605
			l19.208-14.445l-11.102-34.047l11.522-0.867l2.464-28.031l-18.537-14.043l20.874-20.066l29.123,5.195l20.697-26.875l14.96,14.59
			l-9.673,12l27.833,15.828l-1.183-31.438l24.773-19.453l10.332,13.875l25.886-23.711l24.212,15.09l101.83-43.414l24.633,27.023
			l47.104-41.836l-3.057-15.699l36.497,2.758l-14.163-22.285l18.545-3.141l15.312-40.406l-28.284-17.242l9.396-34.383l15.722,17.41
			l41.747-9.938l-27.621-86.168l42.655-14.266l15.174-47l58.278-34.242l-6.098-27.203l49.305-40.73l-10.93-61.98l43.662-20.641
			l33.366,7.008l59.391,53.922l36.837-26.891l13.814,12.391l39.382-11.562l0,0l10.328,50.051l28.01,41.402l-14.617,44.914
			l27.212,38.852l2.615-15.738l27.764-9.363l19.94,13.602l45.781-4.969l26.55-33.797l15.483-61.406l46.06-46.789l12.489,41.805
			l30.134-9.051l42.482,112.27L3309.892,3261l9.771-8.562l20.983,20.117l17.392-35.738l15.275,4.262l29.712-23.66l40.114,82.562
			l35.592-9.527l1.698-24.305l21.054-0.102l4.415,23.082l26.721-4.543l45.99,47.836l9.604,71.078l57.723,91.773l-7.271,41.855
			l28.459-8.527l44.293,34.684l24.044-35.504l22.858-3.984l1.252,27.137l14.715,3.488l5.287-26.746l18.127-2.57L3847.835,3560.582z"
			/>
		<path id="FR-J" fill="none" stroke="#000000" stroke-miterlimit="10" d="M3669.693,625.094l32.736-26.902l-10.509-34.461
			l-24.974-0.371l27.83-75.129l-16.073-9.289l-8.589,16.941l-39.354-54.879l-42.659,17.41l-53.785-13.156l-13.777,25.055
			l-17.321-35.074l0.552-47.195l-18.128-21.484l-37.576,4.797l6.338-19.805l-15.345-5.238l-34.336,22.922l-29.401-18.117
			l-18.16-72.961l7.443-23.875l-24.109-12.871l-13.922-35.551l-69.02,20.91l-16.041,32.777l-40.67-18.969l-23.062-45.965
			l-30.481-1.157l-12.428-20.441l-3.225-38.547l14.474-15.254L3115.464,41l-278.298,79.867l-29.077,32.086l-27.899,8.188
			l11.302,37.031l-17.738,42.679l4.792,85.754l3.588,16.929l-11.24,75.113l24.388,18.227l-23.967,2.941l-6.293,42.875l52.594,51.094
			L2760,523.652l-50.373,77.242l0,0l24.773-3.133l1.211,16.481l90.327,82.351l25.701,66.848l-12.763-0.535l-20.976,36.765h21.736
			l-18.823,27.129l-0.343,33.133l18.193,23.691l-10.782,18.391l25.358,0.055l-26.574,51.445l31.275,70.93l-5.185,15.145
			l-10.856-13.98l-16.944,4.098l-1.944,17.531l0,0l17.641,29.84l28.075,5.992l57.992-6.148l27.519-18.312l31.177,24.84l16.666-8.391
			l5.009,14.91l28.08-18.68l61.438,42.332l21.606-9.656l10.786,23.633l17.219-15.145l35.142,25.098l25.886-18.953l15.165,13.977
			l40.674-11.277l6.535,10.859l27.494-7.465l1.175-16.855l23.803,5.785l18.082,29.648l-8.13,20.051l33.849,38.793l13.954-5.227
			l8.348,21.441l13.462-10.664l5.328,29.766l27.204,18.078l8.38-7.742l0,0l67.011-85.5l-9.428-15.285l-22.78,3.281l18.435-21.281
			l-12.979-22.469l7.451-16.328l43.973-4.512l-32.879-28.602l-3-53.586l46.138-22.789l25.542,6.121l1.531-18.856l23.758-14.125
			l39.283,24.781l14.404-112.742l-18.93-27.246l31.868-5.941l3.896-24.117l43.011-42.387l-15.242-12.352l16.417-47.492l-7.41-48.758
			l0,0l-12.596,1.399L3669.693,625.094z"/>
		<path id="FR-K" fill="none" stroke="#000000" stroke-miterlimit="10" d="M2820.471,859.934L2820.471,859.934l0.352-33.144
			l18.823-27.125h-21.745l20.976-36.766l12.763,0.535l-25.71-66.852l-90.318-82.355l-1.211-16.481l-24.773,3.133l0,0
			l-102.251,70.281l-173.125,41.625l-132.098,77.055l-49.268,107.402l34.553,32.043l45.372,1.281l-3.932,11.41l-54.518,14.832
			l-74.274,55.434l-47.349,8.773l-59.768-27.879l-125.666-8.469l-73.059-25.836l-38.063,4.047l-14.331,24.445l-13.602-10.004
			l-16.352,14.906l12.146-38.684l-49.681-75.074l28.005-31.777l-12.587-47.851l-72.408-0.426l-21.008,22.727l-25.988-1.398
			l-115.784-36.899l-2.054,27.41l34.377,23.473l2.783,32.285l-16.417,19.727l27.171,86.191l35.658,23.434l32.355,58.805
			l12.742,115.535l7.128-13.973l2.263,49.316l-21.991,51.703l13.921,7.008l2.12,41.059l41.743,46.574l12.53-2.094l20.214,14.066
			l-75.808-1.152l0,0l29.012,76.207l23.381,14.758l23.447-4.191l34.823-39.266l63.982,18.691l0,0l78.035,4.613l29.745,33.117
			l16.11-7.266l-5.843-12.297l23.238-6.176l4.207,21.555l49.268-33.906l39.423-0.523l15.169,13.445l11.13-19.992l17.321,7.852
			l7.726-29.859l14.571,0.367l21.573,18.656l-9.846,9.109l9.396,28.109l33.436,2.98l-0.11,40.031l17.432-11.906l20.525,10.293
			l30.125-41.66l54.416-12.195l28.284,29.289l3.413,53.84l33.89,6.102l15.963,32.004l35.944,8.18l5.144-16.043l29.364,39.414
			l20.779-3.125l0,0l11.343-10.051l-20.976-56.691l50.168-26.305l21.471-35.434l-13.876-18.879l10.639-24.66l-41.509-45.078l0,0
			l-13.079-28.293l18.889-12.707l0,0l4.415-14.617l55.144-6.574l9.915-15.938l18.128,6.207l2.119-22.52l73.378,14.836l13.913-10.523
			l-3.622-28.07l34.164-19.727l-4.272-27.285l18.537-8.766l0,0l6.228-20.18l-16.937,1.375l-7.726-41.039l14.019,1.535l7.341-18.48
			h39.14l28.284-77.344l0,0l1.939-17.543l16.949-4.086l10.852,13.98l5.189-15.156l-31.28-70.922l26.574-51.445l-25.358-0.047
			l10.786-18.391L2820.471,859.934L2820.471,859.934z"/>
		<path id="FR-L" fill="none" stroke="#000000" stroke-miterlimit="10" d="M1445.172,2192.281l13.708,9.613l-4.976,17.188
			l26.095,13.152l2.541,27.785l-20.361-32.246l-32.078-16.93l-2.361-17.039L1445.172,2192.281z M1857.941,1428.449l78.035,4.605
			l29.745,33.121l16.106-7.266l-5.839-12.293l23.234-6.176l4.21,21.551l49.268-33.91l39.418-0.523l15.173,13.445l11.13-19.992
			l17.317,7.852l7.729-29.859l14.571,0.371l21.574,18.652l-9.845,9.113l9.391,28.105l33.44,2.988l-0.111,40.027l17.432-11.91
			l20.525,10.297l30.125-41.66l54.416-12.195l28.284,29.289l3.413,53.836l33.89,6.102l15.963,32.008l35.945,8.176l5.143-16.039
			l29.365,39.414l20.779-3.129l0,0l41.089,28.867l-22.576,2.855l-13.086,17.562l10.336,13.973l-17.146,1.25l1.244,17.328
			l15.623,3.84l2.374,46.438l-13.082,26.707l-17.535-6.371l2.783,35.426l-23.238,33.609l-40.327,25.281l11.515,12.727l-7.894,10.922
			l-51.105,27.133l-22.927-12.609l0.143,37.762l-52.639-17.949l-13.434,33.883l9.538,20.023l-23.909,51.652l10.234,9.117
			l-36.534,51.172l-7.934,60.004l0,0l-21.639,2.043l-10.16,37.562l-17.428-7.234l-14.96,23.734l-17.33-8.195l12.702-16.965
			l-14.404-2.496l-73.898,8.719l-29.434,19.246l7.554-14.355l-12.21-0.965l-21.438,9.883l4.416,16.082l-19.208,18.109l-65.476-4.273
			l-37.745,15.711l30.723,27.277l-8.037,18.332l46.244,37.98l-7.452,27.355l28.877,46.531l-7.505,13.695l14.891,7.375L2007,2511.082
			l12.419-8.094l23.173,14.578l-63.532,41.703l-27.036-19.988l-46.027,16.062l-10.328-6.223l10.991-24.363l-64.776,27.379l0,0
			l-29.822,0.855l-1.457,22.582l-47.77-36.242l-43.281-0.051l-16.25-30.91l-46.788-8.094l-57.264-37.66l-15.296-58.336
			l-99.255-107.188l-3.413-34.234l14.404-1.262l46.207-69.719l-25.714-33.348l-67.632-19.617l28.145-18.16l-1.768-48.867
			l-44.5,16.09l-26.508-23.246l-19.551,10.227l-39.345-16.262l13.635-24.555l-18.717-18.43l35.208-37.77l0,0l11.969-14.824
			l36.873,8.156l6.58-28.336l46.96,13.613l2.202-16.379l20.632-5.809l5.704-60.168l37.786-22.613l6.331,11.539l32.985-19.215
			l69.654-0.461l13.185-27.848l51.841-20.34l-2.017-16.688l80.678,30.371l31.836-97.363l48.188-19.852l-29.467-136.793
			l19.486-32.645L1857.941,1428.449z"/>
		<path id="FR-M" fill="none" stroke="#000000" stroke-miterlimit="10" d="M4088.617,4067.461l11.162-38.227l-22.514-31.512
			l-28.047,15.594l-62.101,1.809l-27.792-47.836l-49.194-2.152l11.44,13.422l-13.209,1.945l4.313,10.207l14.887,9.598
			l-14.608,13.539l-88.51-15.543l2.921-29.438l-19.936-14.371l-105.386-3.812l0,0l3.687-18.84l76.647-43.277l3.617-11.059
			l-15.926-5.555l20.738-35.078l49.546,5.613l13.749-76.43l-8.978-10.484l70.489-59.062l-20.182-36.934l-22.924-7.629l0.376-51.148
			l-25.034-40.219l0,0l0.417-28.816l48.007,8.098l10.582,41.539l83.805-38.832l16.916,14.574l20.321-18.109l-5.074,40.191
			l70.596,8.66l9.706,28.578l25.043,17.383l30.101-6.426l20.935-28.375l14.412,9.578l15.033-11.941l0.066-34.258l-27.343-19.039
			l7.407-13.23l-47.345-2.031l-21.844-17.988l-3.944-24.406l27.392-5.824l-13.953-30.078l54.276,13.465l17.357-14.969l-23.267-20.23
			l16-52.445l50.97-0.777l14.265-18.047l-10.958-7.797l9.771-25.93l43.171-0.48l10.164-10.312l-10.713-11.375l23.726-15.051
			l13.496,9.574l26.966-23.617l39.446,6.07l15.354-10.762l22.359,9.297l-11.09-70.473l-41.574-8.527l14.33-51.312l30.518-1.328
			l10.959,26.027l29.986,8.938l20.672-28.188l41.854,0.148l0,0l14.715,44.43l24.634,2.742l2.324,53.375l39.177,26.961l25.084-5.73
			l30.166,18.922l-7.857,16.762l26.518,51.59l-39.635,2.98l1.809,28.07l-39.071,43.801l32.319,47.926l-19.355,4.02l-1.874,28.684
			l41.501,61.371l62.805,16.641l59.039,41.516l113.766-28.75l7.406,64.031l-72.567,81.688l12.104,43.438l-66.627,33.695
			l-8.143,2.879l-55.145,25.551l-12.242,31.707l-8.151,7.609l-20.796,17.121l-26.369-3.348l-24.879,54l-50.757,2.816l-9.984,35.723
			l-49.269,36.066l42.623,2.668l-17.506,47.141l-29.781-10.273l-22.539,18.211l-38.932,3.086l-7.145,27.594l-61.576-13.574
			l-11.033,41.844l-20.877-0.992l10.131-23.871l-35.869,0.531l-34.267-22.031l-13.88,10.551l23.169,16.367l-41.607,8.594
			l-12.35-8.969l5.319-22.023l-39.382-13.496l-3.2-17.203l-22.473-3.184l-6.162,12.645l-23.832-25.91L4088.617,4067.461z"/>
	</g>
</g>
</svg>
