<?xml version="1.0" encoding="UTF-8" standalone="no"?>
<svg width="496px" height="570px" viewBox="0 0 496 570" version="1.1" xmlns="http://www.w3.org/2000/svg" xmlns:xlink="http://www.w3.org/1999/xlink">
    <!-- Generator: Sketch 43.2 (39069) - http://www.bohemiancoding.com/sketch -->
    <title>France_regions</title>
    <desc>Created with Sketch.</desc>
    <defs></defs>
    <g id="Page-1" stroke="none" stroke-width="1" fill="none" fill-rule="evenodd">
        <g id="France_regions" transform="translate(1.000000, 1.000000)" stroke="#000000" fill-rule="nonzero" stroke-width="1.50203635" fill="#FFFFFF">
            <polygon id="Bretagne" points="143.350186 155.377727 143.350186 151.189378 142.38719 150.413275 142.576189 144.887302 140.841196 144.016943 138.467204 143.985859 136.352212 142.302297 134.11822 144.974538 132.354227 145.195136 130.833233 147.265746 129.536237 146.952899 126.308249 144.112202 125.182254 140.483369 124.536256 137.778038 114.790292 137.778038 111.609304 135.834773 114.097295 132.507758 108.700315 132.291171 106.634322 134.639534 106.634322 134.642542 105.586326 135.827754 101.741341 135.406613 101.355342 137.615598 99.5453487 137.761995 99.3643494 135.131868 97.0103581 134.420942 96.0323618 135.533958 96.0323618 131.813878 93.3093719 133.847388 89.7183852 133.239741 88.4793898 135.702414 81.1884168 139.660138 81.1884168 141.516167 80.2254204 141.516167 80.2254204 138.085872 76.1524355 136.149626 76.5234341 132.653152 72.8194479 129.914732 72.8194479 126.504491 70.087458 125.910883 70.2754573 122.744302 68.1614652 122.555791 68.3494645 120.365858 63.894481 120.365858 63.4764825 121.729553 62.4934862 119.40726 60.4694937 120.973504 55.9525105 121.54405 55.0555138 122.777392 52.0035251 120.482173 47.4725419 123.533441 49.0905359 125.739418 46.653545 129.077463 43.4735568 127.220431 37.6285784 127.419972 37.6285784 131.326557 36.6075822 131.326557 36.2235836 129.529688 33.9155922 129.899691 33.4765938 125.025483 31.0366029 127.726803 28.8166111 126.807312 24.2516281 127.23848 23.459631 129.206813 21.3856387 129.694134 20.9846402 127.561355 15.9736588 128.229164 15.9736588 129.586843 13.2356689 129.752291 11.7996743 128.737542 9.94168116 129.669066 9.54968261 131.928187 4.40870168 132.115695 1.37071295 135.784637 3.66070446 137.499283 0.638715669 139.984016 1.67671182 141.86411 0.858714853 146.362298 4.44270156 146.829565 5.49469765 145.777714 5.98269584 146.42547 13.5616677 145.434785 15.105662 144.367894 13.7926669 145.62831 14.2706651 148.107026 17.9356515 146.458559 17.2266541 148.962344 21.580638 149.151857 21.4866383 149.714381 17.1316545 149.545925 13.4666681 148.594347 8.76068554 146.33322 5.59769727 149.978096 9.3096835 151.243525 9.10668425 156.942968 10.5866788 155.745724 12.6496711 152.592179 16.5006568 154.801165 18.3736499 155.201249 19.0806472 158.03593 18.0446511 159.894967 15.6816599 159.718489 13.2926687 159.723502 9.41468311 160.316108 2.61970832 160.700149 0.987714375 162.865015 3.2987058 164.245756 5.42269792 164.057245 7.17069144 165.624492 9.68068212 165.435981 13.6526674 169.965254 14.5896639 174.860518 13.0826695 177.882707 17.6366526 178.746047 22.3036353 178.516425 23.447631 176.447819 22.2706354 174.867537 23.0416326 175.212472 24.808626 175.025967 27.9466144 176.78774 30.2346059 176.343537 30.2346059 175.354858 30.4236052 176.167059 33.0695954 180.49278 38.9605735 180.894869 39.095573 180.178929 40.1025693 181.634874 43.6235562 182.256559 45.9995474 182.256559 46.0215473 182.291654 48.3005388 185.94756 51.749526 186.811902 52.0145251 186.409813 51.8545257 187.016457 54.7575149 188.287902 58.2165021 191.729226 59.304498 193.760731 58.510501 198.945781 61.2234909 200.977285 62.7524852 199.201474 61.4794899 197.519917 61.4794899 194.492714 63.7214816 195.032176 64.3414793 193.168125 64.6234783 193.823902 67.5044676 196.325681 68.9544622 193.915149 68.7834629 193.527098 69.4504604 194.434557 69.5964598 194.4135 67.7084668 196.797961 70.355457 197.68336 72.1474504 200.473921 82.8454107 199.492261 84.9314029 199.948498 83.9244067 200.816851 84.1424059 202.890469 84.7274037 203.329659 85.7893998 203.140146 87.3763939 201.548834 88.41139 202.753097 91.6743779 202.753097 95.5033637 200.789777 101.152343 198.554721 101.340342 193.045794 102.607337 192.358933 102.607337 192.358933 106.228324 190.421683 118.457279 189.820053 119.281276 187.533858 121.133269 185.711922 125.553252 185.097256 125.734252 183.011605 128.234242 183.358545 129.973236 185.694876 134.25222 186.750737 135.126217 184.915764 136.112213 181.406255 138.604204 175.238543 139.802199 174.553687 143.352186 174.991874 143.352186 169.232268 141.977191 167.853532 141.977191 162.306501 141.383194 160.322125 141.383194 157.358093 143.350186 155.377727"></polygon>
            <polygon id="PL" points="184.345034 153.38232 181.666044 153.228904 181.666044 153.228904 181.376045 153.213864 180.393049 149.734436 177.879058 148.768819 177.110061 144.540362 175.185068 142.817694 172.938076 143.035283 172.10508 145.028685 169.39009 146.141701 164.085109 145.354568 158.879129 148.442936 156.932136 147.056179 153.997147 149.029526 152.060154 147.621711 150.666159 145.238253 147.502171 143.942742 145.495178 145.541073 141.982191 145.109905 141.777192 150.695039 142.751188 151.482171 142.751188 155.132061 140.783196 157.105408 140.783196 160.363236 141.376194 162.351624 141.376194 168.101203 142.751188 169.479939 142.751188 174.312032 139.6762 173.934008 138.124206 174.817401 135.543215 181.212731 134.559219 184.712213 134.25922 185.370998 133.918221 186.054851 133.606222 185.985663 130.323235 185.169452 128.561241 182.804042 125.186254 182.335774 124.993254 184.573838 120.84927 185.149397 118.809277 187.16185 118.02428 189.247502 106.129324 189.833089 100.756344 192.675791 100.569345 198.135585 95.2553646 200.238283 91.6023782 202.147456 88.688389 202.147456 87.4123937 200.658421 85.4994008 202.576619 84.0354063 202.849358 85.3154015 203.731749 81.6454151 207.010633 82.6184115 207.986277 83.296409 209.345961 81.2334167 212.232784 83.6914075 213.554365 87.7753924 214.427731 88.0743913 213.181354 89.9363844 215.56381 93.7463702 215.56381 96.2763609 212.806338 98.1863538 212.806338 95.6393632 214.084802 95.8463624 216.262703 96.5683598 217.923203 94.6463669 219.851427 92.0823764 219.851427 92.5793746 223.449176 97.0203581 222.635973 101.79734 227.043916 101.737341 227.120123 101.516341 227.397876 101.521341 227.401886 95.8493624 234.738767 95.6523632 239.669126 101.674341 245.51998 101.466342 247.462243 103.334335 247.462243 107.024321 258.561317 110.999306 260.538675 114.957292 264.508432 119.387275 264.508432 121.137269 268.424042 125.482252 268.424042 127.375245 271.301839 132.163228 273.703347 132.337227 271.134386 133.135224 271.888429 139.237201 268.17236 141.690192 268.004906 142.877188 271.221622 146.726174 269.600229 149.858162 271.955611 152.504152 270.705223 154.751144 270.084541 155.75114 268.886294 158.743129 266.958069 156.361138 264.531494 155.005143 265.564293 154.891143 264.613717 156.301138 261.979579 154.941143 259.653276 156.049139 258.153211 155.443141 252.553037 153.577148 249.685266 154.972143 247.871351 151.812155 244.319728 152.98215 241.752772 148.226168 237.779005 148.226168 235.475764 146.451175 232.945909 146.932173 232.744363 146.925173 232.738346 150.112161 231.366629 156.204139 232.753387 159.165128 230.807113 159.165128 228.198044 164.205109 227.805981 169.032091 226.840365 174.107072 226.660879 174.62107 227.850101 176.352064 229.352171 177.832058 226.748115 181.461045 222.924755 183.061039 222.924755 185.32403 214.746595 188.482019 210.976379 188.26302 206.675726 190.226012 204.112781 190.226012 202.744073 189.311016 201.619024 189.872014 200.468908 191.006009 198.19274 194.705996 200.803815 197.360986 200.803815 196.29599 197.297314 198.223983 198.569762 199.671977 196.439991 205.548955 194.814587 204.517959 192.312808 205.733955 190.757594 208.672944 189.600458 211.504933 185.911462 211.504933 182.380896 213.399926 182.380896 214.254923 179.368734 214.448922 175.12323 212.584929 173.404573 214.003924 170.923851 216.510915 167.729195 213.536926 165.603435 211.006935 165.164245 208.239945 161.035056 207.02695 161.035056 206.96995 161.63067 202.990965 161.63067 201.055972 158.735826 197.820984 157.572675 196.877988 150.704063 195.165994 148.306567 189.615015 148.504102"></polygon>
            <polygon id="IDF" points="302.519596 114.540072 300.110605 112.791333 298.70761 113.503262 296.894617 114.969235 295.006624 114.389664 291.699636 115.752357 288.879646 114.126952 287.608651 115.800487 286.110657 115.961924 284.985661 115.044438 282.888669 113.788034 280.589677 115.323194 280.252678 114.986281 280.251678 114.990292 279.386682 114.120936 275.032698 111.528913 270.774713 109.29887 268.567722 110.312617 266.36673 110.873136 264.894735 109.755106 261.595748 107.702545 258.963757 109.721014 255.384771 110.117087 250.25579 109.722017 249.167794 107.94821 248.222797 105.734211 246.347804 108.065528 245.110809 112.460437 243.958813 114.418743 243.940813 114.410721 243.817813 114.656387 243.810813 114.66842 238.375834 116.233661 237.397837 117.447951 238.467833 119.122488 238.467833 120.843151 239.915828 121.15299 239.205831 121.867928 239.37083 123.414117 239.708829 123.158424 241.401822 124.85803 241.99882 127.208398 243.481815 128.698436 242.769817 130.68181 242.749817 132.839657 244.056813 134.328692 242.715818 136.6199 244.181812 140.190575 246.871802 142.112784 247.293801 144.363883 249.624792 144.737897 250.16979 148.925243 252.075783 151.239514 255.352771 151.857188 256.063768 152.000576 256.410767 154.328885 256.817765 154.982657 257.244764 160.471529 263.895739 159.869899 266.31173 157.626821 268.340722 159.278296 273.538703 159.650304 274.755699 161.483271 274.756699 161.483271 274.756699 161.477255 275.470696 162.538129 277.727688 163.687243 277.895687 166.667318 274.597699 168.948499 276.799691 170.923851 279.069683 169.471917 284.326663 169.651404 286.429655 169.2443 287.000653 167.732203 288.715647 167.881608 289.132645 169.626336 294.352626 166.672331 298.72961 161.518366 297.125616 159.714478 298.373611 157.044243 301.708599 155.370708 309.36657 155.746727 310.994564 154.493331 311.394563 154.894417 311.908561 151.019919 312.675558 147.172494 314.061553 145.371614 314.243552 143.114498 316.977542 141.948338 316.977542 139.861684 313.961553 140.056211 313.511555 139.009375 314.466551 137.27668 313.623554 134.09907 312.12756 133.169551 312.481559 130.775063 314.102553 129.735245 313.872554 128.514939 314.659551 127.551328 311.047564 126.791268 310.058568 124.462959 308.244574 123.845286 303.117593 118.887853"></polygon>
            <polygon id="PACA" points="459.929012 375.279581 457.873019 373.462658 455.934027 372.851001 455.06203 370.56982 455.772027 368.973494 459.344014 365.168183 458.779016 362.410711 459.077015 362.093853 459.078015 362.093853 459.154015 362.009625 459.618013 361.514282 459.611013 361.514282 460.919008 360.090424 463.223999 360.297987 463.223999 358.027835 460.48601 356.641078 459.890012 350.942637 457.486021 350.069271 454.785031 350.474368 449.920049 348.016709 449.135052 342.129757 446.168063 341.140076 445.230066 339.286052 443.872071 336.300963 439.867086 336.101423 437.901093 336.980806 437.504095 339.861612 434.505106 340.208552 433.948108 337.632572 432.630113 336.310991 428.861127 336.712077 427.338133 338.03065 426.516136 342.352361 427.248133 343.549605 431.291118 343.952697 432.052115 346.422389 433.56411 347.180443 433.56411 350.971716 430.018123 350.791227 428.470128 352.528935 424.027145 351.750827 421.529154 353.881601 419.759161 353.10249 416.884171 355.344565 417.865168 357.12539 416.554173 358.44296 411.501191 358.44296 411.501191 361.280649 412.977186 362.017646 412.543187 363.022369 409.385199 364.308855 405.140215 364.72799 403.87722 368.716799 403.67722 371.223591 405.717213 372.883088 403.91422 375.00584 401.403229 373.734395 397.910242 373.499759 397.399244 375.700723 399.172237 376.942086 396.987245 378.381988 397.894242 382.083016 404.556217 383.878882 405.748213 386.428792 407.563206 386.779743 406.922208 392.758944 406.922208 392.758944 406.890208 393.075803 406.153211 392.202436 404.253218 390.525893 403.134222 393.825835 401.540228 395.251699 401.15123 395.220614 401.14923 395.216604 400.872231 395.195546 400.534232 395.16747 400.535232 395.173487 399.222237 395.079231 396.435247 393.028675 395.62125 390.385513 389.953271 389.964372 386.087286 389.611416 385.736287 387.580914 387.070282 384.721165 386.604284 384.3652 384.171293 386.44283 380.546306 386.064805 379.936308 384.991898 382.700298 381.233715 379.688309 378.39001 376.660321 378.634673 374.392329 382.177272 375.007327 386.023694 378.171315 386.411746 377.804316 387.441536 375.323326 387.62403 372.573336 390.410581 372.084338 389.799926 372.645336 385.884316 371.296341 384.27295 365.692361 385.1032 364.465366 387.601971 365.207363 388.01509 368.436351 393.387648 368.436351 397.87982 374.24933 403.675524 374.24933 405.882504 371.608339 407.38658 371.610339 407.388585 366.554358 410.290448 365.167363 420.666564 359.444384 419.859377 357.647391 424.653367 358.931386 426.463271 352.776409 430.231481 350.819416 434.792841 357.435392 435.092653 365.540362 435.680245 366.513358 436.654886 364.126367 436.654886 361.892375 440.484262 370.729343 442.338286 378.034316 441.065838 374.311329 437.536275 376.255322 435.924908 379.701309 437.377845 381.479303 441.171124 392.88526 441.36164 395.551251 440.268678 395.979249 441.561181 392.438262 444.649549 397.082245 444.851095 396.477247 446.384249 394.894253 448.223232 405.061215 448.223232 409.616198 449.745357 409.966197 450.21162 410.604195 451.080976 414.044182 452.618141 415.022178 456.579876 417.491169 457.048145 419.550162 455.605235 422.964149 453.497524 428.619128 454.054032 428.487128 455.154012 426.666135 456.051444 426.783135 456.620987 432.231114 456.875677 430.61112 455.207156 430.250122 452.951043 432.503113 451.38881 435.302103 452.316323 436.403099 452.663263 437.492095 454.002893 439.201089 452.794619 439.581087 450.209615 440.974082 449.007357 445.115067 449.007357 446.272062 447.271654 448.883053 448.023692 452.28804 446.554711 452.28804 440.936488 449.029052 441.08489 451.177044 439.751276 452.822038 437.511207 453.255036 434.465955 458.794016 433.699879 461.810005 430.315709 461.817005 430.323731 461.997004 430.106142 462.210003 429.865489 462.201003 429.859473 462.250003 429.800313 462.428002 425.568847 466.172989 426.318879 467.546983 424.536049 469.681976 424.977244 469.871975 418.809532 474.205959 418.449556 478.101944 414.914979 481.761931 414.914979 481.95893 412.632795 485.585917 410.441858 483.599924 405.894537 486.502913 403.383733 485.927915 400.530001 490.1399 399.184355 491.356895 394.666112 490.779897 391.651945 489.773901 389.866106 488.921904 387.065517 485.775916 387.304164 476.55795 390.62416 473.77796 390.62416 468.799979 386.586218 463.595998 385.150328 460.880008 385.1403 460.880008 381.733068 456.785023 379.197197 456.785023 375.708744"></polygon>
            <path d="M492.67507,514.412983 L492.67407,514.410977 L492.67407,514.410977 L492.592071,514.252548 L490.738077,510.601655 L490.14108,498.839785 L488.722085,496.60874 L488.721085,496.606734 L488.721085,496.606734 L486.234094,494.667479 L485.838096,487.597322 L487.035091,484.236214 L485.450097,478.867668 L484.481101,474.575036 L483.627104,473.280529 L483.626104,473.280529 L483.626104,473.280529 L481.610111,472.131415 L478.348123,474.321349 L478.795122,476.46616 L480.231116,478.325198 L478.527123,479.63976 L478.924121,480.446947 L479.32512,481.252129 L478.194124,482.566691 L478.194124,484.564103 L478.195124,484.566108 L478.195124,484.566108 L480.166117,486.349942 L480.166117,488.877791 L479.055121,491.251223 L478.034125,491.703448 L477.458127,490.904282 L476.51613,489.597742 L473.704141,489.825359 L473.121143,489.428283 L470.564152,489.428283 L468.290161,491.541008 L467.502164,494.762738 L462.551182,495.712311 L458.528197,499.137592 L457.7992,501.155058 L456.215205,501.004651 L454.87721,499.410331 L454.87721,499.410331 L454.87621,499.408325 L454.230213,503.234693 L452.844218,503.79822 L452.40622,507.188407 L452.937218,508.420746 L450.903225,509.903764 L450.349227,511.358707 L448.697233,511.358707 L448.697233,513.976801 L450.814226,515.459819 L454.002214,517.32387 L454.165213,518.491033 L452.475219,519.008435 L449.109232,519.655187 L449.109232,521.372841 L450.271228,522.571088 L450.498227,526.581956 L454.99621,528.023863 L456.439205,528.37682 L457.6372,530.266941 L456.839203,531.405025 L455.259209,531.974568 L454.050214,534.187565 L452.805218,535.670583 L453.433216,539.58519 L456.535204,539.387655 L457.379201,540.032402 L460.105191,538.66971 L460.584189,539.151014 L459.209194,542.096996 L460.48619,543.37546 L458.353198,544.96978 L456.615204,548.880377 L461.293187,549.975344 L466.772166,550.486729 L464.752174,552.837098 C464.341175,552.69772 463.481179,552.475117 462.98118,552.703737 C462.95218,552.71978 462.919181,552.732815 462.848181,552.78997 C462.841181,552.795987 462.806181,552.825065 462.753181,552.88222 C462.735181,552.898264 462.704181,552.925337 462.677182,552.972465 L462.625182,553.076747 L462.627182,553.09981 C462.623182,553.111842 462.618182,553.119864 462.618182,553.120867 L462.602182,553.165989 C462.586182,553.191057 462.579182,553.230163 462.569182,553.287318 L462.568182,553.371546 C462.568182,554.105535 461.628185,555.935494 461.259187,556.573222 L461.155187,556.761732 L463.240179,559.050935 L466.837166,561.269948 L473.506141,563.04576 L475.440134,563.822865 L476.919129,564.470621 L475.627133,566.825 L479.085121,566.617438 L479.674118,567.982136 L483.237105,567.982136 L484.131102,563.720588 L482.399108,563.364624 L484.972099,560.630215 L483.906103,559.523215 L484.059102,558.064262 L487.592089,556.120996 L487.821088,553.498891 L485.050098,553.275285 L483.889103,554.275997 L483.889103,553.271274 L486.918092,553.084769 L487.959088,550.557922 L488.761085,543.611099 L488.768085,543.561966 L488.169087,540.622 L488.108087,537.973824 L488.111087,537.971818 L487.984088,532.101913 L492.67207,525.462924 L492.67207,514.402955 L492.67807,514.402955 L492.67807,514.408972 L492.67407,514.408972 L492.67507,514.412983 L492.67507,514.412983 Z" id="C"></path>
            <polygon id="N" points="250.817788 75.9745732 248.808795 72.2986127 248.205797 68.7429782 239.578829 60.2830549 238.540833 58.2024171 236.255842 58.4019578 234.430848 57.621844 233.055853 59.3134276 224.728884 65.7288109 209.916939 69.4508964 200.093976 72.9804603 192.094005 77.3051787 187.300023 84.4535482 186.253027 90.2352144 190.307012 93.2924985 194.560996 94.190933 190.623011 94.8948403 183.127039 99.2356022 174.884069 102.50446 168.352093 98.8475507 152.299153 96.4701087 148.524167 94.4947562 142.952188 95.9146035 142.952188 95.9136008 141.146194 96.3728452 140.969195 91.940836 135.926214 85.9526101 137.346208 82.3929647 139.7292 82.3929647 137.578208 76.5060132 128.87124 76.0838694 124.454256 79.157197 119.557274 75.9464971 111.965303 73.6693268 111.001306 76.1059291 115.187291 79.476061 115.187291 83.5501002 113.521297 85.6207108 114.723292 86.8199603 115.168291 87.1247863 114.772292 90.7546218 116.180287 93.9623135 120.67827 99.0581213 121.630267 103.493139 122.592263 104.903961 122.592263 111.857804 124.936255 116.628731 124.936255 121.970205 122.377264 127.103113 125.202254 134.426958 129.476238 135.389566 129.770237 136.937761 127.919243 137.787063 123.916258 137.787063 124.604256 140.648817 125.789251 144.458139 129.193239 147.460274 131.080232 147.950602 132.684226 145.767687 134.423219 145.548092 136.436212 143.146585 138.258205 144.594508 140.635196 144.594508 141.968191 145.263321 141.968191 145.718554 145.669178 146.173788 147.59817 144.640633 150.234161 145.717551 150.260161 145.761671 150.42316 146.087554 150.44216 146.071511 151.574156 147.990711 153.979147 149.767525 156.918136 147.792173 158.846129 149.16389 164.204109 145.98628 169.461089 146.762383 172.558078 145.492943 173.350075 143.601819 174.978069 143.442387 176.553063 144.854212 177.34606 149.211017 179.894051 150.189669 180.914047 153.794437 184.564033 154.001999 189.857014 149.099716 194.871995 148.921232 196.29499 150.865501 197.275986 158.019886 200.668974 159.238187 202.671966 162.235309 206.665951 162.235309 206.813951 163.323257 207.412949 163.307213 207.573948 161.635684 207.921947 161.635684 210.652937 165.715739 213.255927 166.137883 213.256927 161.048092 211.888932 159.231168 211.554933 157.939669 214.254923 156.326297 217.247912 155.721659 219.327904 153.195815 218.936906 145.710532 214.811921 142.201023 214.623922 138.830891 214.150924 138.51303 216.603914 136.160656 219.205905 136.160656 226.281879 132.49372 228.46687 133.414214 233.628851 133.435271 234.940846 131.868024 234.940846 128.999251 238.849832 127.056988 238.849832 123.879378 239.926828 122.985957 239.831828 122.090531 241.120823 120.798029 239.063831 120.356833 239.063831 118.948016 238.134835 117.489062 238.722832 116.757079 244.213812 115.186824 245.647807 112.732173 246.851802 108.395422 248.301797 106.592537 248.565796 104.627211 250.04179 105.44242 251.929783 104.927024 250.745788 103.074003 250.17979 98.5176568 248.481796 96.9975378 248.976794 95.4784216 250.345789 92.9184851 251.388785 91.1196108 249.198794 91.1196108 249.198794 87.9851174 248.058798 86.069928 248.801795 82.317761 249.745791 79.9332999 248.183797 79.9332999 248.782795 78.4462706"></polygon>
            <polygon id="HDF" points="340.460455 48.0890135 339.563458 46.2951527 333.144482 41.2354428 321.935524 41.844092 320.784528 43.7793358 319.888531 43.7793358 320.069531 37.110265 316.761543 33.1956579 314.414552 33.5716767 313.001557 31.9643214 309.082571 33.7250924 307.811576 32.4526446 305.151586 32.0585768 304.438589 29.7423005 304.248589 21.7586677 302.472596 20.9635132 302.235597 19.6830436 301.082601 19.6830436 300.672603 17.3086097 297.800613 17.5653053 292.840632 19.1596253 290.52664 22.0324095 288.474648 22.0324095 287.039653 20.2505814 286.461655 18.1488865 284.369663 15.766431 281.664673 15.766431 280.628677 13.8602659 280.628677 10.6706232 281.996672 8.50274901 281.160675 5.37326925 278.498685 0.002717 272.019709 3.05498755 262.308745 4.6152152 261.976746 4.6743755 261.976746 4.67337279 261.901746 4.68741082 261.336748 4.78667981 261.341748 4.79369883 250.960787 6.77907849 242.12382 13.569478 242.12482 40.1404758 242.04182 41.181296 242.04382 41.1822988 241.520822 47.5224783 245.847806 51.4491181 245.847806 52.7656855 240.794825 49.7685644 234.03785 58.114178 236.160842 59.017626 238.186834 58.8411478 239.061831 60.6009162 247.644799 69.0417879 248.224797 72.4550366 250.09779 75.9144102 249.567792 76.5701871 248.290797 78.101336 247.294801 80.5379383 248.856795 80.5379383 248.224797 82.1523127 247.4198 86.1852404 248.592796 88.1555793 248.592796 91.7252519 250.339789 91.7252519 248.419796 95.2528103 247.796799 97.1930677 249.606792 98.8164665 250.16079 103.215386 250.981787 104.562035 250.12279 104.798676 248.095798 103.672625 247.5788 107.505009 248.063798 106.890344 248.638796 108.222955 249.904791 110.297576 255.394771 110.715709 259.196756 110.298579 261.631747 108.430517 264.558737 110.24744 266.23373 111.525904 268.769721 110.879152 270.763714 109.968685 274.743699 112.055339 278.988683 114.573161 280.511677 116.098294 282.899668 114.499963 284.642662 115.536772 285.924657 116.58762 287.93165 116.368025 289.037646 114.908069 291.651636 116.416155 295.033623 115.023381 297.019616 115.632031 299.024609 113.999607 300.048605 113.487219 300.134605 113.552396 300.133605 113.562423 300.438603 113.78302 300.675603 113.960501 300.677603 113.953482 301.959598 114.877987 302.549596 119.177638 307.874576 124.325587 309.604569 124.946269 310.618566 127.316692 314.227552 128.075749 314.78855 127.372844 315.742547 125.343345 318.686536 123.959595 320.26153 119.829404 322.186523 118.513839 320.917527 116.760087 318.461537 116.760087 318.217537 115.88271 319.810532 115.169778 320.806528 113.654673 318.995535 112.455423 319.429533 111.07769 324.147515 110.683622 323.163519 108.461601 320.505529 106.714868 320.505529 101.763452 323.993516 99.1553848 328.3885 99.1553848 327.956501 97.092796 329.927494 96.2475055 333.217482 98.3983335 334.950475 97.9220429 334.756476 91.0524288 335.337474 88.752196 336.186471 85.7921754 333.64448 84.4234667 334.084479 83.2573068 337.880464 82.4581413 337.880464 79.8681233 340.767454 78.3299555 341.628451 75.7319157 340.638454 74.1265658 340.810454 71.3991756 342.644447 69.7567251 340.831454 66.3143976 341.395451 62.5883013 338.044464 62.5883013 338.058464 62.5802795 337.039468 62.5802795 336.894468 61.0972611 340.811454 58.7408761 340.157456 54.6167011 336.746469 53.7262884 337.438466 53.0053349 337.438466 50.3110343"></polygon>
            <path d="M492.511891,113.960501 L489.233903,111.351432 L484.326921,110.782891 L479.914938,108.570897 L477.050948,110.283538 L475.567954,108.613012 L473.304962,108.613012 L470.218974,109.462313 L470.237973,109.434237 L469.572976,109.640796 L469.386977,109.690932 L469.381977,109.698954 L469.311977,109.721014 L468.089981,107.95924 L464.151996,105.55673 L462.714001,103.300617 L457.74002,103.735796 L454.99903,106.262643 L448.586054,106.445137 L446.756061,105.165671 C446.507061,104.721467 445.591065,103.174275 444.735068,102.693973 C444.696068,102.672916 444.632068,102.637821 444.582069,102.617767 C444.544069,102.598715 444.490069,102.58568 444.457069,102.569636 L444.28207,102.533538 L444.28207,102.833351 L444.18507,102.533538 C443.497073,102.533538 442.081078,101.802558 441.43008,101.415509 L441.300081,101.3383 L438.241092,102.626791 L438.053093,104.914991 L435.193103,105.267948 L433.261111,101.618058 L432.199115,101.242039 L432.199115,98.5306921 L429.441125,97.3364562 L429.253126,92.70992 L427.196133,90.6834289 L423.022149,88.6549324 L420.862157,88.6268563 L420.267159,89.0339594 L418.499165,89.0339594 L415.770176,86.6735636 L412.615187,86.8761124 L410.195196,88.9136334 L409.627198,89.8120678 L406.60821,89.8120678 L405.453214,88.62084 L405.104215,88.62084 L405.104215,88.6188346 L402.328225,88.6188346 L398.798238,84.702222 L394.048256,84.702222 L391.697265,86.8710989 L388.375277,87.0596097 L387.228281,88.2468266 L386.826283,88.2468266 L386.826283,88.2508375 L386.411284,88.2508375 L385.662287,84.6731432 L383.965294,82.9735379 L383.192296,82.8662472 L383.196296,82.8612336 L381.550302,82.6065435 L380.787305,78.7821808 L379.064312,77.4716297 L373.695332,76.8870457 L372.757335,74.4293863 L370.896342,73.2171015 L364.759365,72.417936 L364.416366,68.2877447 L365.187363,67.5156526 L365.187363,65.4701099 L362.112375,63.5258417 L362.633373,61.6116549 L363.495369,59.4688487 L362.215374,58.3628518 L364.217367,56.5559558 L364.217367,52.7295877 L363.23537,52.0196641 L360.046382,52.0196641 L358.02539,55.0238042 L356.189397,56.8948741 L356.189397,60.9649024 L354.011405,62.4188421 L349.74742,63.7935671 L347.559429,64.6950097 L344.871439,62.5802795 L340.791454,62.5802795 L340.206456,66.408653 L341.89245,69.6103284 L340.226456,71.1013686 L340.028457,74.263938 L340.970453,75.7930814 L340.273456,77.8947763 L337.284467,79.490099 L337.284467,81.9678127 L333.63848,82.7338885 L332.894483,84.7012193 L335.474473,86.0899823 L334.757476,88.5917612 L334.153478,90.9822386 L334.289478,96.1973697 L334.294478,96.1973697 L334.338478,97.4778393 L333.319481,97.7525837 L329.985494,95.5766879 L327.266504,96.7398396 L327.649502,98.5627791 L323.795517,98.5627791 L319.907531,101.466648 L319.907531,107.045765 L322.682521,108.87071 L323.254519,110.157196 L318.977535,110.515166 L318.289537,112.708108 L319.977531,113.82714 L319.413533,114.69449 L317.50654,115.5468 L318.013538,117.365728 L320.619529,117.365728 L321.347526,118.369448 L319.777532,119.435336 L318.222537,123.515392 L315.295548,124.889114 L314.289552,127.056988 L313.227556,128.355507 L313.432555,129.451476 L311.925561,130.418095 L311.469562,133.47538 L313.098556,134.491132 L313.824554,137.204484 L312.843557,138.979293 L313.580555,140.687923 L316.377544,140.507434 L316.377544,140.911529 L316.371544,140.912532 L316.371544,141.553268 L313.667554,142.702381 L313.472555,145.148008 L312.15656,146.863657 L311.312563,150.923658 L310.853565,154.381026 L312.289559,155.557213 L314.609551,155.557213 L319.486533,160.658035 L318.884535,165.982462 L322.726521,168.946493 L324.652514,167.598842 L327.544503,171.048188 L327.919501,174.577752 L330.091493,177.501675 L331.13549,179.830986 L339.21046,180.252128 L342.926446,178.374039 L344.016442,180.413565 L345.762435,180.652212 L346.778431,178.458267 L353.031408,178.276775 L355.827398,176.790749 L356.219396,174.35916 L361.542377,174.35916 L362.867372,175.107187 L362.865372,175.099165 L364.557366,176.049741 L368.002353,179.717679 L372.354337,185.595607 L369.753346,188.395192 L371.670339,189.699727 L371.863338,193.174142 L375.092326,192.983625 L375.863324,194.524801 L378.467314,194.733367 L380.071308,193.83794 L383.009297,197.523928 L383.497295,198.689085 L388.184278,197.627208 L388.964275,195.728062 L389.266274,195.781206 L389.266274,193.649429 L391.694265,192.583541 L394.815253,193.775772 L397.805242,192.562484 L399.754235,192.562484 L400.375233,188.473404 L401.646228,186.945264 L399.584236,186.723663 L399.438236,184.88468 L402.108226,184.300096 L402.294226,182.786996 L405.077215,182.786996 L405.077215,180.158875 L407.319207,179.342663 L406.708209,177.720267 L407.250207,177.376335 L408.692202,176.500963 L407.940205,175.339817 L408.427203,175.040005 L409.781198,176.619284 L412.052189,175.024964 L412.621187,173.162918 L415.995175,172.618443 L416.766172,173.224084 L416.578173,175.387947 L419.338162,177.502678 L421.108156,177.290102 L422.839149,175.923398 L426.693135,175.923398 L429.631124,179.2454 L430.81912,179.2454 L432.567113,178.159457 L432.783112,177.01636 L434.054108,176.374621 L435.625102,177.416444 L437.352095,179.360712 L443.541072,182.658648 L443.562072,182.672686 L444.416069,184.34221 L447.620057,184.534732 L451.016045,187.186918 L451.521043,188.39419 L451.342044,190.608189 L450.359047,192.426115 L450.797046,195.171554 L453.577035,194.759437 L454.097033,196.656578 L455.12903,201.096609 L457.295021,200.74265 L456.939023,202.621741 L458.535017,204.00148 L465.972989,203.806953 L469.876975,200.714573 L470.064974,196.347741 L472.126966,193.692546 L469.432976,190.596156 L468.175981,187.661204 L469.696975,185.592598 L469.696975,180.63316 L470.639972,178.337941 L470.660972,174.400271 L472.472965,171.766134 L470.465973,168.94148 L470.297973,163.868735 L470.304973,163.871743 L470.283973,163.40949 L470.276973,163.201928 L470.273973,163.200925 L470.252973,162.844961 L475.313955,152.922073 L475.353954,152.841856 L474.753957,147.14141 L477.091948,139.492684 L477.673946,132.953967 L482.748927,129.246922 L482.748927,126.846418 L484.56292,124.473989 L486.100915,124.473989 L488.038907,122.528718 L487.655909,119.134521 L489.322903,114.655384 L492.511891,113.960501 L492.511891,113.960501 Z" id="GE"></path>
            <polygon id="O" points="338.97446 378.170415 338.121464 377.645994 338.677462 373.565938 335.326474 369.920059 333.967479 362.794752 328.821498 356.155763 325.289511 357.010078 324.520514 354.343853 322.074523 354.343853 321.686525 356.764412 317.065542 358.192281 313.534555 349.154793 307.670577 351.269523 306.201582 354.569465 302.665595 352.196033 299.806606 361.165337 297.186615 367.197682 295.83362 365.52515 295.253623 359.796628 293.33363 359.796628 292.479633 354.212497 288.606647 354.777027 288.123649 351.469064 287.326652 350.219678 281.431674 355.260337 281.431674 359.796628 280.090679 359.796628 279.517681 364.302838 278.190686 364.845308 277.12869 367.253835 271.394711 367.253835 270.864713 366.437623 267.750725 366.437623 266.102731 369.177046 265.804732 369.143956 264.476737 368.963467 265.541733 365.724691 263.061742 364.637746 265.540733 358.866107 262.138746 356.322214 261.00075 349.042488 257.613762 348.134027 255.55077 350.170545 254.456774 348.226277 250.935787 351.756843 248.997794 352.003512 245.209808 346.56678 240.040827 344.250504 235.798843 346.235884 234.784847 346.395316 235.019846 346.75128 233.771851 347.826193 233.771851 350.243743 235.456844 352.107794 233.84885 354.9886 232.228856 356.026412 232.019857 357.877428 228.65887 358.290547 228.887869 360.904631 229.880865 361.245554 227.441874 364.719969 223.044891 365.10802 222.848891 368.196389 221.148898 369.870926 220.180901 372.36368 216.098916 372.55921 217.77391 378.826191 219.484904 382.581367 219.583903 382.799959 215.760918 383.491834 212.591929 381.599707 211.053935 386.613292 213.215927 388.969677 212.30593 392.469159 211.050935 393.926107 211.808932 396.121054 208.410945 396.837997 205.176957 397.698328 205.960954 400.43374 204.943958 400.737563 204.928958 400.723525 204.42496 400.893987 204.27296 400.939109 204.28196 400.947131 203.388963 401.77337 200.559974 398.966765 194.420997 399.560374 192.858003 402.317845 189.461015 402.681832 186.336027 403.24235 184.867032 401.170737 181.684044 404.356369 179.286053 402.307818 177.710059 405.682964 177.885058 408.048373 176.170064 408.526669 175.349067 407.356498 174.254072 404.027478 171.303083 406.552319 169.453089 405.804292 167.101098 406.246491 164.960106 408.843528 167.261097 412.745099 165.753103 414.256194 166.351101 417.601258 164.497108 420.033849 163.030113 423.974527 164.742107 426.995713 169.544089 427.330621 170.027087 427.373738 173.133076 432.514668 170.968084 434.497039 174.898069 440.396023 173.055076 442.822599 169.957087 449.811536 164.549108 454.430051 165.911103 457.159446 165.049106 457.727987 161.948117 457.091261 161.10812 463.744289 159.541126 464.938525 159.175127 469.678368 160.013124 469.204083 163.149113 471.071142 166.961099 473.941921 167.335097 476.286273 170.632085 478.963527 173.301075 478.963527 179.655052 476.268224 182.292042 479.305454 186.318027 480.392399 187.680022 478.078128 189.185016 478.751954 192.788003 479.006644 192.788003 479.011658 201.304971 479.580198 201.72397 469.980186 204.055961 470.328129 207.681948 472.443861 207.665948 472.456897 209.087942 473.254057 215.265919 474.451301 217.68091 474.451301 220.998898 478.781033 229.387867 478.375935 232.741855 483.737463 235.836843 482.482061 244.134812 483.632178 244.67381 486.741603 244.67181 486.741603 245.079809 489.186227 248.090798 492.011884 253.852776 493.594171 254.037776 497.010428 257.362763 499.947386 259.959754 499.497166 263.306741 495.390037 267.215727 494.64201 273.522703 496.757743 279.185682 501.623929 280.841676 499.52825 281.977672 499.52825 283.418667 500.547011 284.892661 499.828063 285.07866 497.119724 290.841639 495.768062 292.788632 493.218152 295.591621 492.288634 299.507607 492.288634 302.061597 495.004994 305.625584 495.255673 305.625584 491.701041 303.95759 489.391784 301.3106 488.245679 300.890602 471.811147 300.892602 471.813152 300.722602 465.735685 300.952602 458.944282 298.447611 459.145829 296.683617 456.534754 297.953613 454.449102 301.183601 457.506386 304.347589 454.974526 306.392581 452.957059 306.62258 451.053902 306.62758 451.053902 306.76958 449.909802 313.743554 447.764991 314.504551 446.055358 319.922531 445.86785 321.712524 443.644826 332.263485 435.227017 338.799461 430.587446 340.667454 430.716796 340.665454 430.718802 344.092441 430.969481 344.092441 434.920186 348.845424 434.686553 351.458414 434.82192 353.252407 430.642595 359.790383 426.639749 358.317389 424.568136 359.836383 420.523175 365.679361 421.348411 367.102356 410.668473 374.845327 406.236463 374.845327 403.431864 369.031349 397.633152 369.031349 393.225208 365.636362 387.570886 358.290389 383.43869 357.727391 386.67546 355.424399 386.905082 354.604402 383.841782 351.339415 384.46848 350.829416 388.201595 349.019423 387.541808 344.186441 384.380241 342.248448 385.361901 342.248448 380.134737"></polygon>
            <path d="M465.327992,318.888783 L462.606002,317.844954 L461.835005,315.112551 L456.606024,312.008139 C456.658024,310.882088 456.861023,306.127204 456.380025,304.976084 L456.747024,304.643182 L455.809027,304.643182 C455.163029,304.805623 452.921038,304.985109 452.32304,305.032237 L449.56205,301.878692 L449.66305,298.494522 L449.66105,298.494522 L449.744049,295.548539 L456.338025,292.812124 L457.192022,290.685362 L456.768023,286.188176 L452.24904,281.462371 L451.119044,282.106115 L451.119044,277.735272 L447.379058,275.939406 L447.232059,274.671971 L449.377051,272.339651 L449.377051,269.373615 L445.837064,265.635486 L445.637065,262.926144 L438.655091,262.930155 L434.109107,263.726312 L429.994123,267.07639 L428.925127,265.44898 L426.416136,265.670581 L424.375144,270.154731 L424.339144,270.23194 L424.582143,272.190247 L426.488136,273.756491 L422.884149,276.131927 L420.443158,278.402078 L416.142174,278.402078 L416.129174,278.413108 L414.407181,278.413108 L414.407181,275.157286 L416.549173,273.895868 L420.228159,273.498792 L420.495158,271.101296 L419.432162,270.396386 L422.271151,266.794626 L421.771153,265.365755 L418.119167,263.417476 L409.931197,272.453961 L404.701217,272.453961 L404.701217,270.218905 L401.21023,268.468161 L397.409244,272.661524 L394.923253,273.007461 L394.923253,270.400397 L392.286263,269.194128 L388.378277,263.702247 L384.87729,262.336547 L383.708294,259.767586 L381.462303,259.303328 L379.46331,260.726183 L378.106315,261.081145 L375.968323,259.31135 L373.530332,259.559021 L372.051338,262.305462 L368.380351,276.739574 L367.850353,277.930801 L367.850353,277.938823 L367.838353,277.934812 L367.274355,279.292491 L366.337359,279.164143 L365.616362,275.425012 L364.546366,272.061899 L362.070375,272.280491 L360.463381,273.867792 L359.317385,272.314584 L357.496392,273.947007 L355.2374,272.457972 L353.108408,272.457972 L352.155412,273.188953 L351.696413,275.736857 L351.699413,275.738862 L351.030416,279.316556 L349.000423,279.316556 L347.562429,280.758463 L346.515432,279.710624 L340.168456,278.723951 L340.064456,278.707907 L337.701465,280.099678 L336.44947,280.099678 L336.089471,278.763057 L333.193482,278.17747 L333.003483,275.065036 L332.464485,274.894574 L336.31347,271.948592 L336.50547,264.057209 L334.984475,261.905378 L331.853487,261.905378 L330.701491,260.338132 L327.381503,260.338132 L326.569506,259.340428 L326.569506,256.501736 L322.595521,248.934231 L320.32453,247.279748 L316.497544,252.537996 L315.337548,252.817754 L314.77455,250.430285 L312.629558,249.468679 L311.801561,251.124165 L309.32157,251.124165 L308.882572,249.202959 L306.568581,250.566655 L304.650588,251.641567 L302.466596,249.245074 L299.187608,247.683843 L298.996609,245.064746 L294.078627,244.656641 L291.341637,248.193223 L289.798643,248.381734 L288.190649,250.017166 L286.222656,247.855308 L280.660677,253.463504 L280.660677,256.867728 L281.642673,257.662883 L281.795673,258.937336 L279.333682,260.870574 L276.846691,260.107507 L271.79871,261.146322 L269.194719,264.137426 L267.965724,266.749504 L268.513722,266.643216 L270.691714,269.726571 L270.691714,272.082956 L272.337708,274.225762 L273.675703,272.518135 L275.071698,274.983816 L277.21569,275.758916 L279.300682,280.668219 L279.398681,282.225438 L279.406681,282.229449 L279.68168,286.78379 L281.259675,288.744102 L281.988672,292.214505 L279.70568,293.924138 L279.146682,296.655539 L277.10569,297.755519 L273.201704,300.031687 L273.639703,302.086254 L278.127686,306.590459 L278.507685,309.142374 L276.736691,312.037218 L276.736691,314.990219 L277.941687,316.390012 L278.509685,319.562609 L278.071686,321.12785 L278.073686,321.129855 L277.530688,323.108216 L278.468685,325.384383 L277.489689,326.522467 L275.823695,326.522467 L273.940702,324.454865 L271.68671,323.181414 L271.489711,328.99617 L268.094723,331.071794 L265.405733,334.765804 L266.003731,338.336479 L265.247734,339.861612 L264.313737,342.785534 L262.827743,342.785534 L261.01175,345.051675 L262.346745,346.389299 L263.015742,348.053809 L260.525751,349.81057 L261.605747,356.667148 L264.826736,359.069658 L262.305745,364.952599 L264.826736,366.060601 L263.70374,369.465828 L266.44573,369.821793 L268.115723,367.041259 L270.564714,367.041259 L271.095712,367.855465 L277.542688,367.855465 L278.665684,365.311572 L280.095679,364.72799 L280.646677,360.400264 L282.057672,360.400264 L282.057672,355.539092 L287.226652,351.11711 L287.564651,351.624485 L288.126649,355.458874 L292.003635,354.895348 L292.845632,360.398258 L294.739625,360.398258 L295.272623,365.678566 L295.284623,365.766805 L297.370615,368.353815 L300.391604,361.383929 L303.019594,353.146609 L306.484581,355.468902 L308.139575,351.749824 L313.076557,349.955964 L313.211556,349.910841 L316.738543,358.929278 L322.246522,357.225662 L322.609521,354.946486 L324.093516,354.946486 L324.894513,357.731031 L328.611499,356.833599 L332.865483,362.282364 L332.863483,362.282364 L333.045482,362.512989 L333.258482,362.783722 L333.259482,362.781717 L333.420481,362.987274 L334.779476,370.121605 L334.799476,370.205833 L338.070464,373.770492 L337.502466,377.967866 L341.68845,380.490702 L341.68845,386.358602 L344.188441,385.084148 L348.792424,388.090294 L351.358414,389.033851 L351.909412,384.989893 L354.204404,384.550703 L355.014401,387.572892 L358.279389,387.241995 L358.777387,384.394279 L365.021364,387.917826 L366.12536,385.677757 L368.897349,385.256616 L368.897349,385.250599 L371.086341,384.935746 L372.049338,386.083857 L371.48734,389.996459 L372.558336,391.328067 L375.620324,388.22165 L378.266315,388.032136 L379.026312,385.92242 L375.563325,385.495262 L375.052327,382.322666 L377.031319,379.222265 L379.50231,379.02874 L381.932301,381.321954 L379.254311,384.962819 L380.207307,386.649389 L384.395292,387.08858 L385.969286,385.740928 L385.140289,387.515737 L385.606287,390.18497 L389.929271,390.582046 L395.198252,390.978119 L395.948249,393.414721 L399.034238,395.691891 L401.778227,395.895443 L403.68622,394.189821 L404.567217,391.596795 L405.757213,392.64664 L407.361207,394.563835 L408.250203,386.312477 L406.189211,385.915401 L405.004215,383.387551 L398.41424,381.612742 L397.692243,378.665757 L400.258233,376.97317 L398.093241,375.455057 L398.39724,374.140495 L401.20923,374.310957 L404.082219,375.767905 L406.59521,372.816908 L404.323218,370.965893 L404.485217,368.841136 L405.612213,365.306558 L409.508199,364.914496 L413.018186,363.50267 L413.319185,362.812801 L413.325185,362.814806 L413.393184,362.644345 L413.575184,362.22922 L413.563184,362.22922 L413.758183,361.748918 L412.112189,360.924685 L412.112189,359.062639 L416.811172,359.062639 L418.623165,357.246719 L417.670168,355.513021 L419.85816,353.809405 L421.648154,354.594532 L424.210144,352.400588 L428.703128,353.18772 L430.280122,351.411909 L434.174107,351.609444 L434.174107,346.813449 L432.563113,346.004256 L431.758116,343.392178 L427.612132,342.98307 L427.157133,342.241059 L427.896131,338.353525 L429.108126,337.301675 L432.426114,336.946713 L433.41811,337.941408 L434.051108,340.879369 L438.051093,340.415111 L438.466091,337.404955 L439.997086,336.714083 L444.18507,336.927662 L444.039071,336.63186 L449.435051,334.461981 L451.538043,335.805621 L454.059033,335.805621 L454.253033,333.341946 L456.645024,332.039416 L457.65202,330.866237 L462.834001,328.856792 L463.479999,325.253028 L462.514002,323.742936 L465.327992,318.888783 L465.327992,318.888783 Z" id="ARA"></path>
            <polygon id="CVL" points="278.310686 163.299191 275.882695 162.067855 273.876702 159.064717 268.571722 158.68569 266.29073 156.82565 263.64474 159.28331 258.601759 159.726511 258.608759 159.707459 258.088761 159.77063 257.872761 159.789682 257.867761 159.797704 257.794762 159.806728 257.401763 154.771083 256.994765 154.167448 256.599766 151.48518 252.399782 150.679998 250.746788 148.668548 250.16579 144.20746 247.810799 143.829435 247.4198 141.758825 244.67281 139.795505 243.388815 136.661011 244.79681 134.251483 243.352815 132.607027 243.352815 130.830212 244.183812 128.538001 242.542818 126.894548 241.94882 124.545182 239.759829 122.350234 238.251834 123.584579 238.251834 126.674953 234.346849 128.617216 234.346849 131.64141 233.350852 132.82963 228.64387 132.82963 226.255879 131.826913 219.133905 135.556017 216.369915 135.556017 213.199927 138.593247 214.041924 139.156774 214.227923 142.488803 218.352908 145.998312 218.714907 152.993266 216.919913 155.171167 214.086924 155.742716 210.859936 157.648881 211.325934 159.435723 212.659929 161.245627 212.659929 166.041622 213.248927 166.131867 215.648918 167.848518 214.99992 168.663727 214.99592 168.661722 214.774921 168.946493 214.617922 169.144029 214.620922 169.146034 213.507926 170.58393 211.826932 173.518883 213.836925 175.371904 213.666925 179.266457 212.945928 181.775255 210.903936 181.775255 210.903936 185.702897 208.299945 189.100102 205.361956 190.255232 203.831962 192.211533 204.31796 193.423818 204.30796 193.422815 204.464959 193.791815 204.560959 194.030462 204.566959 194.030462 204.732958 194.418513 199.301979 195.922589 198.062983 197.744526 195.243994 195.88248 196.553989 200.208201 194.897995 200.208201 190.78501 197.302328 188.604018 201.708266 189.627015 202.967679 189.627015 203.914243 187.651022 206.490223 187.872021 210.775836 184.820032 214.414696 182.436041 222.927763 182.83204 222.927763 183.619037 226.016132 187.282023 226.789226 187.282023 229.121546 191.969006 230.500282 191.970006 233.978707 191.756007 236.652953 197.993983 236.645934 203.367964 235.390533 202.943965 233.146452 204.093961 232.431515 205.540955 234.434943 206.853951 235.000476 207.996946 239.634031 211.328934 243.130505 211.703933 245.892991 214.906921 249.071603 215.21792 249.384451 215.21792 252.940086 214.384923 255.444873 218.243908 258.497143 220.251901 260.511602 223.28489 260.906672 224.451885 264.942608 226.505878 266.063646 226.184879 268.586482 224.838884 268.829139 224.827884 269.418737 225.430882 269.550093 230.475863 269.939147 232.109857 268.296697 235.252845 271.449239 239.185831 266.897906 240.804825 267.997887 243.166816 267.777289 243.870813 268.141275 247.745799 268.374908 248.894795 265.256459 258.399759 266.411589 262.172745 267.397259 263.56974 267.23883 263.56974 267.243844 264.050738 267.184683 264.165738 267.171648 264.165738 267.170645 268.690721 266.610127 269.683718 264.492388 272.120708 261.686786 276.817691 260.720167 279.459681 261.527354 282.43667 259.199045 282.212671 257.339005 281.261675 256.569921 281.261675 253.703153 286.202656 248.720653 288.171649 250.883513 290.065642 248.943256 291.647636 248.755748 294.345626 245.273312 298.423611 245.615238 298.472611 246.422425 299.058609 246.492615 300.597603 241.577297 299.606606 239.787447 299.790606 237.351847 300.397604 232.09761 298.240612 229.963828 298.64061 225.323254 296.660617 221.163984 296.467618 218.36139 292.914631 215.586872 292.407633 213.469134 294.133627 210.964347 294.133627 207.030688 292.304634 204.883871 292.317634 204.876852 291.935635 204.450697 291.892635 204.399558 291.890635 204.400561 291.786636 204.287254 291.633636 202.659844 295.582621 201.486666 294.917624 199.063099 294.322626 195.929608 291.769636 192.343892 291.295637 190.614205 294.901624 190.614205 297.839613 188.508499 298.247612 185.326878 296.608618 183.480876 301.574599 179.296538 301.574599 175.496241 298.977609 172.733756 298.006612 169.592243 294.257626 166.032598 289.533644 168.703836 289.200645 167.311062 286.602655 167.085451 285.987657 168.70885 284.282663 169.046765 278.907683 168.854243 276.864691 170.163792 275.567696 169.003648 278.519685 166.962117"></polygon>
            <polygon id="NA" points="281.813673 288.546566 280.251678 286.553165 279.88268 280.567947 277.652688 275.274604 275.478696 274.485466 273.749702 271.435201 272.336708 273.239089 271.290712 271.872385 271.290712 269.529036 268.788721 265.981423 262.226745 266.779586 258.523759 265.814972 248.505796 264.596671 247.3458 267.744199 244.099812 267.571732 243.295815 267.153599 240.972824 267.371189 239.089831 266.095733 236.048842 269.596218 236.048842 269.584185 235.632844 270.074514 235.464844 270.267035 235.464844 270.272049 235.216845 270.564842 232.110857 267.448398 230.248864 269.319468 226.726877 269.051742 227.148875 265.73676 224.961883 264.537511 223.753888 260.364202 220.5349 259.945067 218.639907 258.050934 215.08592 255.236308 215.800917 253.084477 215.815917 249.135777 212.268931 245.606214 211.893932 242.853755 208.539944 239.331211 207.366949 234.564294 205.928954 233.942609 204.25096 231.623325 202.272968 232.850651 202.666966 234.932291 197.920984 236.049318 192.400004 236.049318 192.563004 233.996756 192.563004 230.046051 187.875021 228.667315 187.875021 226.297895 184.102035 225.503743 183.310038 222.32513 181.200046 222.32513 177.34706 226.39215 176.909062 227.155218 176.908062 227.142183 176.181064 228.426663 175.137068 227.546278 174.491071 226.044208 168.957091 226.244751 164.118109 227.21137 158.55713 227.640533 158.55713 230.482233 156.080139 232.109643 150.047161 230.738929 145.523178 232.680189 147.62217 235.664274 147.62217 238.062774 152.241153 241.923234 151.095157 244.431029 154.185146 247.90043 152.831151 249.659196 154.847144 252.691412 155.420141 257.984755 154.216146 259.616175 155.606141 261.988604 154.266146 264.493391 154.530145 266.678311 156.299138 265.326649 157.793133 266.851781 155.384142 268.405993 154.408145 269.555106 152.294153 270.144704 149.939162 271.250701 149.893162 271.215606 149.381164 270.788448 149.382164 270.834573 146.810173 268.91437 143.222187 270.425465 142.097191 267.3752 139.123202 267.578751 132.677226 271.465282 134.15522 272.815942 131.217231 275.208425 130.863233 277.071473 128.300242 277.398359 126.764248 275.673686 122.961262 275.308697 122.574263 273.430608 120.003273 271.709945 116.181287 273.083667 118.648278 276.669383 121.437268 276.669383 124.085258 278.357959 126.330249 280.183907 130.334234 279.995396 131.094232 281.701017 133.800222 282.294626 134.787218 284.989929 136.457212 285.736953 136.313212 287.364363 134.099221 287.009401 133.096224 288.496431 134.888218 291.095473 134.005221 295.039159 131.58423 294.848643 130.981232 293.489961 130.025236 292.675755 129.609237 287.854692 126.17425 287.43355 123.046262 283.611193 122.585263 291.403307 127.106246 294.742355 127.471245 298.360158 128.248242 302.627721 128.683241 307.245233 131.204231 307.014608 135.244216 310.318561 137.856207 311.802582 138.050206 313.820048 140.337197 314.253222 146.459175 320.390853 147.960169 327.307595 147.975169 327.307595 149.562163 333.950595 149.931162 339.524699 149.411164 340.370992 148.590167 336.395219 145.818177 325.558856 135.888214 316.565487 136.116213 312.317978 133.681222 312.088356 130.412234 317.003675 129.441238 333.507394 126.910247 350.152496 125.126254 363.08554 124.938255 366.440631 125.524252 366.544914 126.883247 362.083826 129.371238 358.846053 132.979225 362.120926 133.360223 363.207871 134.22322 364.399099 130.082235 364.58761 129.259238 363.332208 126.932247 364.272757 126.513249 367.311992 124.344257 370.275021 124.348257 374.807302 124.324257 374.955704 120.85327 393.582175 116.349286 410.831915 114.976291 417.495973 113.831296 422.154596 111.088306 426.884412 111.084306 426.882406 110.959306 427.108018 110.786307 427.40783 110.791307 427.409836 110.162309 428.533881 105.710326 433.952564 102.349338 435.284172 99.5623487 435.699297 99.5623487 438.253217 102.082339 440.577515 105.426327 440.755999 105.612326 443.285854 108.832314 443.54656 109.582311 441.834922 113.073299 443.299892 115.24129 443.850383 115.718289 445.847796 114.409294 447.010947 114.409294 450.655824 111.677304 452.026538 111.458305 454.077094 113.352298 456.211879 116.874284 457.308851 117.517282 454.1162 118.625278 452.885866 118.495278 454.656665 120.020273 456.846599 123.52426 456.846599 125.069254 458.956315 129.819236 459.749464 134.34122 462.522979 141.560193 462.522979 141.953191 466.48672 147.071172 470.436422 149.196165 472.970288 151.529156 471.716892 153.265149 471.352905 154.277146 472.36966 159.805125 469.332431 160.120124 465.260397 161.675118 464.07318 162.463115 457.816226 165.173105 458.372734 166.6871 457.378039 165.298105 454.591488 170.400086 450.231674 173.569074 443.134444 175.637066 440.426105 171.755081 434.599316 173.903073 432.632988 170.382086 426.805197 165.112105 426.429178 165.068106 426.354977 164.855106 425.960909 164.847106 425.96492 163.692111 423.939432 165.003106 420.3848 166.995098 417.772722 166.404101 414.476792 168.021095 412.857404 165.696103 408.918731 167.431097 406.813026 169.39409 406.447034 171.418082 407.26124 173.967073 405.081333 174.79607 407.602164 175.926065 409.23559 178.523056 408.518647 178.324056 405.810309 178.969054 404.384445 179.496052 403.285467 181.722044 405.186619 184.793032 402.108277 186.071028 403.920187 189.550015 403.293489 193.234001 402.899421 194.795995 400.143955 200.343975 399.609507 203.389963 402.631696 204.548959 401.505645 206.699951 400.847862 205.920954 398.133507 208.546944 397.432608 212.598929 396.576288 211.731933 394.065484 212.805929 392.82011 213.878925 388.813253 211.728933 386.466895 212.940928 382.518195 215.646918 384.135578 220.4509 383.262211 218.337908 378.634673 216.871913 373.135772 220.6009 372.955283 221.555896 370.430442 221.551896 370.428437 221.613896 370.255969 223.427889 368.47013 223.605888 365.667536 227.769873 365.301545 230.830862 360.941731 229.450867 360.467446 229.304867 358.817976 232.564855 358.4209 232.793854 356.382377 234.236849 355.457872 236.191842 352.030585 234.375849 350.009108 234.375849 348.103945 235.813843 346.866593 235.799843 346.846538 235.938843 346.825481 240.049827 344.916308 244.81981 347.053098 248.717795 352.646253 251.212786 352.3314 254.316775 349.217964 255.41377 351.162232 257.788762 348.813869 260.462752 349.532817 260.600751 350.476374 263.72574 348.273404 262.856743 346.109541 261.794747 345.008558 263.099742 343.38917 264.738736 343.38917 265.793732 340.089228 266.613729 338.438756 266.023731 334.925236 268.445722 331.564128 272.062709 329.349127 272.241708 324.190148 273.517703 324.899068 275.542696 327.124097 277.749688 327.124097 279.145682 325.50471 278.145686 323.078134 279.104683 319.597704 278.485685 316.1273 277.315689 314.769621 277.315689 312.205674 279.110683 309.269719 278.672684 306.30669 278.403685 306.039967 278.419685 306.025929 274.181701 301.77842 273.869702 300.325483 277.390689 298.276932 279.66968 297.046598 280.231678 294.266064 282.635669 292.466187 281.813673 288.546566"></polygon>
            <polygon id="BFC" points="447.845057 183.946137 444.799068 183.76264 444.14707 182.455097 444.14607 182.455097 444.052071 182.264581 437.765094 178.923528 436.0511 176.990289 434.097108 175.684752 432.245114 176.612265 432.022115 177.786447 430.64412 178.642767 429.896123 178.642767 426.958134 175.320765 422.62615 175.320765 420.858157 176.711534 419.502162 176.874977 417.19717 175.108189 417.38517 172.947334 416.155174 171.982721 412.154189 172.631478 411.537191 174.653959 409.875197 175.818113 408.541202 174.263902 407.093208 175.153312 407.843205 176.313455 405.956212 177.469588 406.52821 178.986699 404.462217 179.737734 404.462217 182.183361 401.746228 182.183361 401.552228 183.802749 398.786239 184.40839 399.015238 187.270144 400.453232 187.425565 399.790235 188.217711 399.224237 191.959851 397.729242 191.959851 394.793253 193.128017 391.664265 191.937792 388.649276 193.253356 388.649276 195.066269 388.588276 195.055239 387.74428 197.108803 383.856294 197.9932 383.547295 197.253194 380.224307 193.067854 378.330314 194.117698 376.245322 193.950245 375.451325 192.358933 372.429336 192.540424 372.249337 189.371839 370.666343 188.294921 373.129334 185.641732 368.458351 179.334642 364.958364 175.60654 361.688376 173.754521 355.703398 173.754521 355.2764 176.402697 352.936409 177.676148 346.826431 177.855634 346.692432 177.195846 346.382433 177.867667 346.216434 177.87268 346.267433 178.120351 345.399437 179.991421 344.39544 179.851041 343.174445 177.568857 339.07946 179.636459 331.524488 179.243394 330.601492 177.192838 328.495499 174.344119 328.119501 170.793498 324.757513 166.783633 322.745521 168.190445 319.519533 165.705712 320.10853 160.439442 314.86055 154.946559 312.501559 154.946559 311.022564 153.705195 309.169571 155.132061 301.577599 154.757045 297.913613 156.594023 296.410618 159.813747 297.931613 161.520371 293.791628 166.427668 297.472614 169.922137 298.416611 172.979421 300.965601 175.73589 300.965601 179.015778 295.743621 183.420713 297.602614 185.522408 297.263615 188.173592 294.700625 190.015583 290.49764 190.015583 291.190638 192.558473 293.729628 196.110097 294.315626 199.201474 294.835624 201.076554 292.865632 201.667155 292.872631 201.668157 290.974639 202.230682 291.194638 204.548963 293.530629 207.261313 293.530629 210.787868 291.756636 213.356829 292.374633 215.940831 295.88362 218.681257 296.06162 221.27328 298.022612 225.444583 297.615614 230.20448 299.767606 232.328235 299.186608 237.30472 298.996609 239.929833 299.940605 241.653503 298.463611 246.381314 298.60661 248.085933 302.056597 249.698302 304.519588 252.400624 306.85658 251.087065 308.474574 250.137492 308.841572 251.725795 312.17156 251.725795 312.907557 250.247791 314.259552 250.854434 314.88855 253.540713 316.845543 253.07445 320.452529 248.117017 322.089523 249.282174 322.519521 250.101394 322.533521 250.092369 325.972509 256.572929 325.972509 259.549996 327.099504 260.933746 330.399492 260.933746 331.558488 262.501995 334.679476 262.501995 335.908472 264.23469 335.726472 271.635744 331.683487 274.729126 331.352489 275.500215 332.083486 275.417993 332.420485 275.52027 332.606484 278.679831 335.589473 279.282464 335.977472 280.704317 337.851465 280.704317 340.171456 279.342627 346.220434 280.283176 347.549429 281.615786 349.242422 279.931222 351.520414 279.931222 352.705409 273.532885 353.310407 273.069629 355.058401 273.069629 357.549392 274.713083 359.227385 273.212015 360.394381 274.7933 362.345374 272.871091 364.122367 272.712662 365.040364 275.583441 365.831361 279.71263 367.644354 279.957293 368.936349 276.944128 372.597336 262.540098 373.894331 260.138591 375.769324 259.951083 377.948316 261.754971 379.661309 261.307759 381.590302 259.960107 383.279296 260.309053 384.425292 262.818854 385.661287 263.300158 385.661287 263.30116 387.979279 264.205611 391.882264 269.681449 394.310255 270.793462 394.310255 273.703347 397.704243 273.234075 401.343229 269.216188 404.101219 270.597932 404.101219 273.060605 410.186196 273.060605 418.660165 263.722302 418.154167 263.444549 418.505165 259.630214 421.650154 255.873033 419.519162 255.025737 419.681161 253.997952 419.683161 253.98993 431.701116 242.685299 431.804116 242.591044 431.431117 233.247727 435.532102 231.209203 438.470091 229.830467 441.353081 227.158226 441.57008 223.481263 444.13507 222.177731 450.597046 214.727544 449.66705 212.475441 451.560043 211.623132 454.372032 208.195845 452.691039 206.50727 448.128055 207.452832 448.044056 207.103886 452.521039 201.932875 452.506039 201.926858 452.921038 201.437532 455.725027 200.999345 454.680031 196.504165 454.016034 194.085611 451.296044 194.488704 450.983045 192.532403 451.903041 190.836808 452.132041 188.296926 451.511043 186.808894"></polygon>
        </g>
    </g>
</svg>