<?xml version="1.0" encoding="UTF-8" standalone="no"?>
<svg width="4527px" height="4796px" viewBox="0 0 4527 4796" version="1.1" xmlns="http://www.w3.org/2000/svg" xmlns:xlink="http://www.w3.org/1999/xlink">
    <!-- Generator: Sketch 43.2 (39069) - http://www.bohemiancoding.com/sketch -->
    <title>carte-2</title>
    <desc>Created with Sketch.</desc>
    <defs></defs>
    <g id="Page-1" stroke="none" stroke-width="1" fill="none" fill-rule="evenodd">
        <g id="carte-2" transform="translate(1.000000, 1.000000)" stroke="#000000">
            <polygon id="FR-A" points="4422.502 1097.988 4399.014 1110.902 4373.907 1093.855 4353.415 1105.601 4317.929 1099.839 4281.329 1077.327 4269.463 1039.522 4249.15 1041.803 4252.31 1031.67 4224.517 1038.197 4199.818 1068.107 4152.227 1065.142 4132.111 1046.369 4115.554 1068.428 4109.498 1027.69 4076.368 1010.585 4041.472 1015.948 4040.58 1047.577 4006.935 1041.682 3982.89 980.229 3947.06 944.58 3958.78 934.623 3938.418 899.174 3898.234 875.424 3866.088 880.494 3833.318 855.603 3764.262 891.064 3742.787 888.927 3738.024 866.56 3704.109 863.677 3670.808 829.251 3661.412 842.189 3625.37 836.208 3614.584 859.072 3595.523 846.947 3566.338 864.095 3551.304 811.642 3522.947 792.962 3511.121 803.513 3517.21 780.583 3495.571 757.794 3459.701 759.513 3434.593 722.212 3400.203 702.169 3350.141 705.989 3348.537 666.298 3362.844 643.251 3328.503 611.341 3346.451 573.935 3339.109 559.4 3365.626 520.623 3341.442 503.463 3295.136 548.541 3294.825 596.725 3209.204 628.073 3161.745 610.92 3134.655 616.588 3134.655 616.588 3142.062 665.346 3125.645 712.839 3140.879 725.19 3097.867 767.577 3093.971 791.694 3062.103 797.635 3081.033 824.881 3066.629 937.623 3027.338 912.842 3003.58 926.975 3002.049 945.83 2976.507 939.709 2930.369 962.498 2933.36 1016.084 2966.236 1044.693 2922.267 1049.205 2914.815 1065.537 2927.795 1088.006 2909.36 1109.291 2932.148 1106.006 2941.576 1121.287 2874.565 1206.787 2874.565 1206.787 2875.159 1226.92 2846.069 1229.658 2859.981 1239.295 2842.901 1256.08 2868.608 1266.705 2862.588 1320.67 2891.567 1314.783 2900.298 1330.431 2867.313 1354.509 2872.919 1369.654 2847 1376.826 2857.958 1396.412 2838.964 1402.057 2849.958 1449.069 2849.958 1449.069 2854.791 1465.616 2881.136 1461.432 2921.241 1512.506 2907.397 1556.342 2925.288 1553.584 2938.121 1579.541 2966.372 1566.182 2963.344 1583.498 2981.304 1591.135 3009.347 1644.549 3002.358 1661.08 3017.281 1651.486 3023.816 1662.791 3017.318 1688.9 3069.466 1691.017 3074.863 1680.345 3092.259 1690.595 3112.121 1673.2 3124.364 1682.575 3132.719 1666.727 3139.123 1688.426 3155.827 1691.067 3163.368 1672.219 3246.976 1668.75 3240.469 1648.746 3255.323 1637.027 3329.944 1649.066 3327.023 1671.605 3355.069 1682.996 3343.309 1699.355 3368.229 1692.984 3399.263 1751.562 3372.599 1772.675 3387.633 1775.304 3391.037 1814.55 3411.988 1801.98 3442.949 1835 3464.129 1817.59 3462.427 1832.07 3492.217 1847.511 3490.433 1871.015 3514.019 1852.503 3525.469 1863.511 3547.999 1819.144 3584.753 1821.093 3599.361 1803.323 3609.558 1821.507 3642.212 1815.019 3642.294 1744.851 3659.898 1745.269 3666.577 1724.859 3689.892 1728.625 3726.525 1663.937 3732.368 1685.484 3763.746 1650.464 3796.939 1642.214 3820.87 1687.507 3820.87 1687.507 3820.87 1687.507 3820.87 1687.507 3885.237 1672.691 3916.23 1711.515 3961.045 1680.773 4050.954 1764.835 4102.931 1785.273 4114.365 1816.668 4099.453 1857.691 4127.557 1862.48 4143.729 1908.671 4143.729 1908.671 4167.84 1913.237 4156.791 1938.991 4182.252 1950.581 4232.067 1944.991 4256.111 1925.089 4247.691 1912.667 4267.634 1919.288 4282.267 1895.976 4271.308 1890.019 4300.608 1871.46 4275.687 1808.815 4288.357 1790.104 4291.384 1715.014 4314.241 1666.881 4295.886 1634.58 4298.423 1589.721 4338.884 1495.295 4356.839 1482.045 4352.56 1446.967 4389.642 1317.768 4435.816 1256.69 4476.695 1232.901 4524.736 1142.104 4515.103 1145.749"></polygon>
            <path d="M1223.314,2674.453 L1249.16,2727.207 L1234.024,2769.676 L1220.803,2729.203 L1179.809,2692.867 L1170.594,2646.183 L1223.314,2674.453 Z M1202.086,2596.926 L1226.826,2588.324 L1186.994,2565.172 L1166.149,2568.938 L1170.466,2554.446 L1140.59,2563.356 L1141.077,2540.958 L1119.295,2547.122 L1128.625,2568.626 L1202.086,2596.926 Z M2455.582,2459.188 L2458.02,2478.446 L2474.233,2483.071 L2463.209,2497.645 L2525.898,2529.274 L2567.473,2651.989 L2570.877,2683.438 L2554.525,2691.075 L2551.788,2712.516 L2493.268,2756.496 L2540.305,2813.762 L2539.642,2847.512 L2518.589,2870.371 L2538.218,2891.133 L2527.71,2957.957 L2541.864,2971.336 L2525.201,2982.254 L2479.281,2961.555 L2483.218,2998.727 L2425.496,3055.551 L2438.82,3083.196 L2420.483,3097.165 L2418.188,3124.188 L2392.31,3135.083 L2407.753,3163.794 L2379.396,3176.29 L2379.396,3176.29 L2340.014,3187.852 L2326.2,3175.461 L2289.363,3202.356 L2229.972,3148.438 L2196.605,3141.418 L2152.944,3162.074 L2163.874,3224.043 L2114.569,3264.773 L2120.666,3291.968 L2062.388,3326.21 L2047.219,3373.218 L2004.56,3387.484 L2032.181,3473.656 L1990.434,3483.59 L1974.713,3466.192 L1965.317,3500.563 L1993.601,3517.809 L1978.289,3558.211 L1959.744,3561.356 L1973.906,3583.641 L1937.41,3580.883 L1940.471,3596.578 L1893.364,3638.414 L1868.731,3611.391 L1766.901,3654.809 L1742.689,3639.707 L1716.802,3663.426 L1706.47,3649.547 L1681.697,3669.008 L1682.88,3700.442 L1655.046,3684.614 L1664.72,3672.626 L1649.759,3658.024 L1629.062,3684.899 L1599.939,3679.704 L1579.065,3699.778 L1597.602,3713.825 L1595.139,3741.845 L1583.616,3742.712 L1594.718,3776.759 L1575.51,3791.204 L1565.113,3833.809 L1579.341,3850.899 L1628.777,3851.184 L1655.915,3903.743 L1639.388,3908.04 L1638.893,3932.958 L1662.029,3916.493 L1672.607,3963.778 L1646.201,3985.18 L1656.259,3999.895 L1636.847,4022.598 L1638.693,4044.473 L1621.469,4043.051 L1595.133,4074.305 L1599.659,4103.922 L1562.045,4125.93 L1553.17,4199.731 L1553.17,4199.731 L1524.817,4223.606 L1485.992,4210.184 L1470.061,4233.524 L1407.4,4177.356 L1399.715,4143.508 L1333.855,4150.473 L1274.394,4116.918 L1264.687,4124.504 L1206.728,4095.805 L1220.015,4072.117 L1194.514,4083.461 L1191.146,4114.824 L1161.184,4106.426 L1149.669,4086.449 L1181.398,4038.562 L1179.131,4005.878 L1128.198,3988.78 L1102.729,4008.733 L1097.164,3982.542 L1060.635,3987.601 L1040.588,3961.617 L1039.962,3950.519 L1082.13,3943.402 L1105.545,3922.023 L1159.024,3819.437 L1211.066,3548.546 L1224.95,3387.312 L1246.863,3331.449 L1312.826,3342.613 L1290.107,3313.265 L1302.531,3313.074 L1256.119,3274.367 L1228.498,3352.762 L1223.207,3344.086 L1259.597,2930.145 L1292.955,2881.59 L1290.975,2912.238 L1382.267,2994.015 L1422.418,3121.265 L1459.369,3156.558 L1430.324,3103.035 L1389.784,2937.519 L1324.693,2888.179 L1306.083,2857.359 L1232.181,2822.781 L1231.665,2776.328 L1267.707,2767.922 L1251.985,2742.84 L1274.107,2740.008 L1287.995,2715.692 L1281.006,2673.301 L1295.966,2668.348 L1269.315,2606.231 L1253.63,2600.821 L1261.872,2591.157 L1231.264,2587.852 L1275.584,2539.598 L1273.878,2511.137 L1273.878,2511.137 L1338.654,2483.758 L1327.663,2508.121 L1337.991,2514.344 L1384.018,2498.282 L1411.054,2518.27 L1474.586,2476.567 L1451.413,2461.989 L1438.994,2470.083 L1448.357,2357.204 L1433.466,2349.829 L1440.971,2336.134 L1412.094,2289.603 L1419.545,2262.248 L1373.301,2224.268 L1381.338,2205.936 L1350.615,2178.659 L1388.36,2162.948 L1453.836,2167.221 L1473.044,2149.112 L1468.629,2133.03 L1490.067,2123.147 L1502.278,2124.112 L1494.724,2138.467 L1524.158,2119.221 L1598.055,2110.502 L1612.458,2112.998 L1599.757,2129.963 L1617.087,2138.158 L1632.047,2114.424 L1649.475,2121.658 L1659.635,2084.096 L1681.275,2082.053 L1681.275,2082.053 L1690.391,2104.897 L1725.742,2106.936 L1724.593,2135.561 L1767.936,2139.581 L1775.036,2201.003 L1870.539,2187.55 L1859.961,2162.64 L1902.997,2179.105 L1907.445,2214.917 L1979.885,2304.308 L1979.013,2367.835 L2015.092,2385.038 L2017.011,2400.577 L2042.414,2400.374 L2042.414,2400.374 L2083.878,2452.159 L2083.878,2452.159 L2076.369,2480.878 L2115.751,2483.44 L2133.322,2469.21 L2154.649,2496.21 L2193.167,2455.687 L2199.743,2472.835 L2222.221,2458.339 L2228.87,2475.093 L2248.696,2459.812 L2263.8,2473.988 L2282.586,2440.683 L2302.068,2456.187 L2350.71,2447.48 L2388.843,2464.082 L2455.582,2459.188 Z" id="FR-B"></path>
            <polygon id="FR-C" points="4132.314 2933.328 4097.663 2915.816 4097.549 2848.992 4068.111 2843.086 4030.473 2806.356 4035.064 2750.965 4077.056 2745.942 4113 2707.778 4075.697 2637.79 4053.535 2643.591 4062.374 2607.181 4027.133 2600.685 4050.654 2529.173 4017.992 2491.763 4035.219 2455.712 3930.432 2440.665 3837.641 2489.395 3826.47 2513.61 3840.456 2543.973 3857.43 2541.618 3852.487 2557.11 3794.389 2599.88 3734.932 2605.544 3742.788 2561.317 3792.997 2544.075 3785.238 2526.962 3808.816 2485.829 3772.176 2461.087 3772.176 2461.087 3704.24 2537.04 3654.072 2538.993 3650.07 2514.708 3625.403 2496.935 3589.221 2535.138 3566.535 2537.24 3564.063 2507.385 3553.744 2511.6 3549.324 2495.276 3542.228 2514.065 3532.931 2477.995 3505.842 2462.507 3511.236 2445.796 3483.884 2439.956 3472.164 2414.421 3421.677 2426.816 3381.706 2409.375 3325.318 2581.406 3306.495 2579.554 3310.08 2552.843 3290.39 2539.999 3301.242 2530.124 3290.529 2516.315 3269.095 2536.69 3251.737 2522.436 3229.329 2535.635 3195.096 2521.487 3183.614 2576.6 3151.741 2591.018 3126.24 2572.288 3050.321 2584.913 3044.514 2568.179 3015.878 2562.312 3016.152 2526.8 3055.607 2505.566 3053.872 2437.988 3036.612 2422.324 3008.466 2424.789 2997.991 2402.969 2964.252 2399.336 2962.309 2367.297 2923.373 2290.012 2910.778 2286.52 2901.03 2323.301 2864.853 2342.258 2852.225 2310.664 2826.58 2325.836 2799.576 2309.148 2775.433 2329.679 2716.844 2269.765 2716.844 2269.765 2678.395 2270.781 2652.477 2304.75 2622.769 2309.195 2607.002 2294.883 2575.207 2322.707 2576.487 2338.684 2556.342 2338.582 2571.863 2391.937 2544.659 2409.23 2483.533 2410.441 2455.593 2459.183 2455.593 2459.183 2458.031 2478.441 2474.244 2483.066 2463.22 2497.64 2525.909 2529.269 2567.484 2651.984 2570.888 2683.433 2554.536 2691.07 2551.799 2712.511 2493.279 2756.491 2540.317 2813.757 2539.658 2847.507 2518.605 2870.366 2538.23 2891.128 2527.722 2957.948 2541.876 2971.339 2525.213 2982.249 2479.292 2961.55 2483.229 2998.722 2425.507 3055.538 2438.831 3083.19 2420.495 3097.159 2418.2 3124.182 2392.322 3135.084 2407.766 3163.775 2379.408 3176.283 2379.408 3176.283 2389.736 3226.334 2417.746 3267.74 2403.134 3312.654 2430.342 3351.502 2432.957 3335.764 2460.721 3326.401 2480.661 3340.003 2526.442 3335.038 2552.991 3301.237 2568.475 3239.839 2614.535 3193.046 2627.024 3234.847 2657.157 3225.796 2699.64 3338.066 2741.944 3220.027 2751.715 3211.461 2772.698 3231.574 2790.09 3195.844 2805.365 3200.11 2835.077 3176.442 2875.191 3259.001 2910.783 3249.474 2912.485 3225.177 2933.539 3225.072 2937.95 3248.15 2964.671 3243.607 3010.661 3291.443 3020.265 3362.529 3077.991 3454.299 3070.716 3496.151 3099.176 3487.624 3143.468 3522.308 3167.513 3486.804 3190.37 3482.82 3191.622 3509.957 3206.337 3513.445 3211.624 3486.707 3229.752 3484.129 3279.862 3519.59 3279.862 3519.59 3280.28 3490.774 3328.287 3498.872 3338.869 3540.411 3422.674 3501.579 3439.59 3516.161 3459.911 3498.044 3454.837 3538.235 3525.433 3546.895 3535.139 3575.473 3560.182 3592.856 3590.283 3586.43 3611.218 3558.055 3625.629 3567.633 3640.664 3555.692 3640.729 3521.434 3613.378 3502.395 3620.792 3489.165 3573.448 3487.134 3551.604 3469.146 3547.66 3444.74 3575.052 3438.916 3561.099 3408.846 3615.374 3422.303 3632.732 3407.334 3609.465 3387.104 3625.465 3334.659 3676.435 3333.882 3690.7 3315.835 3679.741 3308.038 3689.505 3282.108 3732.685 3281.628 3742.849 3271.323 3732.136 3259.94 3755.862 3244.889 3769.357 3254.463 3796.324 3230.854 3835.771 3236.916 3851.124 3226.154 3873.482 3235.451 3862.393 3164.978 3820.818 3156.451 3835.148 3105.146 3865.667 3103.81 3876.625 3129.837 3906.611 3138.775 3927.284 3110.587 3969.138 3110.743 3969.138 3110.743 4016.703 3086.364 4060.324 3097.567 4060.397 3081.977 4078.664 3081.289 4098.183 3056.441 4126.123 3058.117 4144.66 3038.765 4136.001 3003.531 4158.549 2962.965 4137.498 2951.352"></polygon>
            <polygon id="FR-D" points="2722.332 1465.133 2711.193 1493.469 2722.364 1522.34 2684.022 1567.418 2684.022 1567.418 2716.202 1582.91 2723.236 1614.078 2749.363 1636.605 2750.48 1666.207 2709.179 1700.738 2714.81 1762.394 2654.412 1777.624 2653.021 1798.565 2680.302 1816.655 2697.767 1874.546 2653.167 1890.64 2681.869 1941.91 2659.919 1992.992 2699.55 2032.222 2712.149 2132.917 2732.977 2153.522 2716.838 2269.784 2716.838 2269.784 2775.428 2329.702 2799.571 2309.167 2826.574 2325.855 2852.22 2310.683 2864.847 2342.281 2901.025 2323.32 2910.772 2286.539 2923.368 2290.035 2962.303 2367.32 2964.247 2399.355 2997.985 2402.988 3008.461 2424.808 3036.606 2422.343 3053.867 2438.007 3055.602 2505.589 3016.147 2526.819 3015.873 2562.331 3044.509 2568.198 3050.316 2584.936 3126.235 2572.315 3151.736 2591.042 3183.609 2576.62 3195.091 2521.511 3229.324 2535.656 3251.731 2522.461 3269.082 2536.711 3290.524 2516.336 3301.237 2530.145 3290.377 2540.024 3310.075 2552.864 3306.491 2579.567 3325.305 2581.419 3381.701 2409.399 3421.68 2426.837 3472.159 2414.442 3483.879 2439.977 3511.23 2445.817 3505.829 2462.528 3532.927 2478.016 3542.224 2514.086 3549.32 2495.297 3553.739 2511.625 3564.059 2507.406 3566.538 2537.265 3589.224 2535.16 3625.398 2496.957 3650.065 2514.73 3654.067 2539.015 3704.235 2537.062 3772.17 2461.113 3772.17 2461.113 3804.178 2396.097 3788.039 2380.257 3906.945 2279.968 3911.119 2222.23 3899.882 2202.421 3999.915 2139.987 3994.203 2124.1 4082.05 2042.178 4077.811 2019.385 4116.947 1995.494 4103.263 1975.478 4055.469 1985.72 4076.731 1944.681 4098.254 1934.013 4091.683 1913.279 4143.725 1908.666 4143.725 1908.666 4127.553 1862.471 4099.449 1857.686 4114.36 1816.655 4102.919 1785.264 4050.951 1764.83 3961.041 1680.764 3916.226 1711.502 3885.233 1672.686 3820.866 1687.495 3796.928 1642.21 3763.741 1650.456 3732.355 1685.479 3726.519 1663.932 3689.888 1728.616 3666.572 1724.85 3659.894 1745.264 3642.282 1744.846 3642.209 1815.014 3609.555 1821.498 3599.358 1803.31 3584.741 1821.087 3547.995 1819.134 3525.465 1863.501 3514.015 1852.497 3490.429 1871.009 3492.213 1847.505 3462.423 1832.056 3464.125 1817.583 3442.945 1834.993 3411.985 1801.97 3391.034 1814.54 3387.63 1775.298 3372.595 1772.665 3399.251 1751.556 3368.226 1692.974 3343.305 1699.345 3355.066 1682.986 3327.011 1671.599 3329.941 1649.056 3255.319 1637.021 3240.457 1648.736 3246.964 1668.744 3163.363 1672.213 3155.818 1691.061 3139.114 1688.416 3132.715 1666.721 3124.36 1682.569 3112.116 1673.19 3092.254 1690.585 3074.855 1680.339 3069.462 1691.007 3017.309 1688.89 3023.812 1662.785 3017.277 1651.476 3002.353 1661.074 3009.342 1644.539 2981.299 1591.121 2963.339 1583.488 2966.363 1566.176 2938.116 1579.531 2925.284 1553.578 2907.393 1556.336 2921.232 1512.496 2881.127 1461.426 2854.786 1465.61 2849.95 1449.055"></polygon>
            <path d="M532.29,1967.945 L597.038,2005.519 L592.377,2019.789 L535.601,2011.41 L532.29,1967.945 Z M540.359,1198.484 L542.135,1217.199 L588.825,1198.277 L588.825,1223.734 L614.425,1222.16 L603.364,1244.754 L643.371,1257.703 L637.634,1276 L682.196,1313.895 L680.53,1341.965 L718.173,1362.676 L708.892,1379.024 L718.704,1374.887 L729.18,1374.887 L748.388,1380.379 L773.709,1339.606 L801.854,1327.586 L796.666,1315.777 L814.515,1311.789 L820.535,1324.074 L855.808,1292.933 L867.949,1303.55 L849.339,1328.909 L881.87,1316.151 L904.139,1351.878 L914.119,1329.956 L913.566,1321.878 L949.952,1319.046 L975.973,1368.866 L971.59,1394.366 L986.657,1372.788 L971.071,1347.89 L984.706,1355.183 L980.004,1344.011 L958.819,1318.878 L969.397,1295.554 L1020.915,1280.421 L1012.22,1319.347 L1043.671,1337.187 L1115.273,1321.234 L1115.273,1321.234 L1144.286,1397.445 L1167.668,1412.199 L1191.119,1408.008 L1225.938,1368.742 L1289.925,1387.437 L1289.925,1387.437 L1289.925,1387.437 L1289.925,1387.437 L1298.51,1481.257 L1279.028,1513.898 L1308.495,1650.691 L1260.307,1670.543 L1228.471,1767.91 L1147.793,1737.539 L1149.811,1754.227 L1097.969,1774.563 L1084.784,1802.415 L1015.13,1802.872 L982.14,1822.091 L975.814,1810.548 L938.028,1833.161 L932.32,1893.329 L911.688,1899.141 L909.49,1915.516 L862.53,1901.907 L855.95,1930.239 L819.073,1922.087 L807.108,1936.911 L807.108,1936.911 L794.026,1935.88 L791.869,1914.275 L812.992,1911.091 L789.123,1897.743 L682.735,1917.263 L649.369,1882.896 L604.529,1869.841 L575.648,1874.626 L578.742,1902.356 L590.834,1926.418 L572.915,1924.156 L566.548,1861.273 L519.023,1815 L493.104,1814.691 L491.259,1801.855 L460.745,1809.589 L435.137,1774.523 L365.377,1753.203 L321.085,1760.586 L289.29,1702.852 L274.362,1712.735 L279.412,1727.626 L219.64,1726.481 L204.02,1757.696 L142.714,1757.794 L146.028,1710.462 L124.144,1671.849 L92.939,1649.669 L14.311,1632.138 L22.074,1618.857 L125.712,1596.791 L164.472,1605.982 L177.652,1584.841 L160.818,1546.298 L109.365,1528.021 L76.277,1563.779 L81.666,1522.759 L54.429,1520 L52.101,1506.816 L72.487,1505.511 L71.935,1480.167 L85.574,1474.788 L84.457,1504.573 L180.026,1506.604 L184.584,1496.651 L153.452,1488.413 L165.454,1480.272 L160.13,1463.624 L141,1482.464 L111.317,1482.362 L131.527,1452.764 L123.326,1446.237 L59.372,1476.202 L33.768,1467.276 L1.801,1480.846 L0.377,1383.569 L16.692,1362.253 L58.23,1351.612 L81.993,1319.874 L131.019,1319.663 L118.731,1310.632 L150.252,1298.71 L167.651,1305.331 L167.757,1321.608 L202.752,1312.053 L193.291,1308.483 L205.853,1293.62 L250.145,1299.19 L268.059,1272.335 L280.998,1272.382 L280.405,1300.347 L294.396,1306.331 L320.867,1300.397 L331.895,1276.588 L394.347,1288.94 L401.59,1294.096 L415.92,1302.451 L427.542,1263.021 L414.251,1230.806 L425.488,1238.443 L443.018,1213.255 L479.969,1233.907 L540.359,1198.484 Z" id="FR-E"></path>
            <polygon id="FR-F" points="2184.658 1160.379 2218.409 1213.609 2219.661 1305.531 2283.959 1363.972 2288.972 1409.527 2312.698 1423.23 2333.715 1414.5 2332.908 1441.215 2350.132 1443.512 2353.889 1463.36 2348.422 1502.438 2414.843 1496.961 2428.625 1473.219 2443.262 1497.012 2472.041 1478.969 2498.655 1487.992 2505.472 1517.183 2537.938 1534.788 2538.11 1565.339 2512.392 1587.737 2603.488 1587.999 2620.458 1576.616 2614.23 1565.487 2636.003 1564.444 2643.11 1584.678 2684.022 1567.416 2684.022 1567.416 2716.202 1582.908 2723.236 1614.076 2749.363 1636.596 2750.48 1666.198 2709.179 1700.729 2714.81 1762.385 2654.412 1777.615 2653.021 1798.556 2680.302 1816.638 2697.767 1874.536 2653.16 1890.63 2681.861 1941.9 2659.912 1992.97 2699.535 2032.208 2712.131 2132.899 2732.971 2153.512 2716.832 2269.766 2716.832 2269.766 2678.384 2270.782 2652.465 2304.759 2622.757 2309.204 2606.99 2294.884 2575.203 2322.708 2576.484 2338.681 2556.339 2338.579 2571.852 2391.938 2544.648 2409.227 2483.522 2410.442 2455.582 2459.184 2455.582 2459.184 2388.816 2464.059 2350.683 2447.457 2302.049 2456.164 2282.567 2440.66 2263.776 2473.965 2248.676 2459.785 2228.846 2475.07 2222.2 2458.324 2199.723 2472.812 2193.155 2455.66 2154.637 2496.18 2133.309 2469.188 2115.738 2483.418 2076.357 2480.856 2083.874 2452.145 2083.874 2452.145 2042.397 2400.36 2042.397 2400.36 2017.006 2400.563 2015.087 2385.032 1979.008 2367.821 1979.88 2304.294 1907.44 2214.899 1902.992 2179.09 1859.956 2162.625 1870.534 2187.531 1775.031 2200.988 1767.931 2139.566 1724.588 2135.546 1725.73 2106.921 1690.379 2104.882 1681.271 2082.034 1681.271 2082.034 1689.197 2022.034 1725.73 1970.85 1715.504 1961.733 1739.405 1910.085 1729.866 1890.058 1743.3 1856.179 1795.94 1874.124 1795.805 1836.362 1818.724 1848.975 1869.837 1821.842 1877.731 1810.92 1866.216 1798.193 1906.535 1772.912 1929.781 1739.303 1926.999 1703.877 1944.533 1710.248 1957.615 1683.549 1955.242 1637.111 1939.627 1633.271 1938.375 1615.943 1955.528 1614.689 1945.192 1600.72 1958.278 1583.165 1980.854 1580.31 1939.765 1551.435 1939.765 1551.435 1951.108 1541.396 1930.125 1484.705 1980.301 1458.389 2001.759 1422.963 1987.883 1404.084 1998.527 1379.428 1957.018 1334.338 1957.018 1334.338 1943.94 1306.049 1962.837 1293.338 1962.837 1293.338 1967.252 1278.721 2022.392 1272.151 2032.311 1256.21 2050.438 1262.421 2052.558 1239.898 2125.936 1254.746 2139.848 1244.211 2136.235 1216.141 2170.391 1196.426 2166.119 1169.141"></polygon>
            <polygon id="FR-G" points="4248.955 4688.698 4259.111 4666.198 4297.912 4644.815 4251.182 4639.241 4248.825 4620.018 4208.462 4620.385 4233.415 4603.655 4226.974 4591.667 4247.753 4587.296 4258.647 4548.261 4239.545 4530.605 4190.702 4548.996 4185.448 4515.687 4204.852 4514.066 4208.92 4493.632 4239.217 4476.273 4222.726 4446.992 4181.225 4439.609 4178.475 4392.828 4167 4388.476 4220.859 4374.742 4189.376 4356.523 4193.025 4335.843 4171.42 4343.3 4168.531 4323.929 4207.045 4305.054 4215.671 4279.882 4204.818 4275.323 4229.73 4253.366 4231.679 4225.409 4253.587 4240.05 4258.22 4217.077 4332.366 4198.843 4370.536 4156.261 4404.311 4154.519 4431.032 4182.156 4447.073 4154.183 4434.748 4108.32 4452.769 4065.32 4445.429 4032.211 4474.334 4024 4488.427 4035.852 4498.665 4120.793 4482.313 4182.949 4512.512 4242.824 4521.555 4408.312 4518.241 4451.281 4470.487 4521.269 4461.64 4664.242 4424.206 4687.062 4427.332 4696.98 4438.012 4683.035 4455.797 4687.945 4422.602 4717.547 4424.231 4748.18 4400.121 4771.715 4417.659 4771.578 4389.891 4794.484 4359.83 4780.679 4369.258 4760.538 4351.63 4757.476 4354.937 4740.511 4341.049 4751.796 4326.783 4736.394 4299.513 4736.82 4272.515 4723.527 4276.337 4710.007 4253.159 4705.89"></polygon>
            <polygon id="FR-H" points="2255.012 1006.238 2272.653 1036.078 2300.728 1042.07 2358.72 1035.922 2386.239 1017.61 2417.416 1042.45 2434.082 1034.059 2439.091 1048.969 2467.171 1030.289 2528.609 1072.621 2550.215 1062.965 2561.001 1086.598 2578.22 1071.453 2613.362 1096.551 2639.248 1077.598 2654.413 1091.575 2695.087 1080.298 2701.622 1091.157 2729.116 1083.692 2730.291 1066.837 2754.094 1072.622 2772.176 1102.27 2764.046 1122.321 2797.895 1161.114 2811.849 1155.887 2820.197 1177.328 2833.659 1166.664 2838.987 1196.43 2866.191 1214.508 2874.571 1206.766 2874.571 1206.766 2875.165 1226.895 2846.083 1229.637 2859.996 1239.274 2842.916 1256.059 2868.622 1266.684 2862.602 1320.653 2891.581 1314.77 2900.313 1330.418 2867.335 1354.484 2872.941 1369.64 2847.022 1376.812 2857.98 1396.398 2838.985 1402.043 2849.98 1449.051 2849.98 1449.051 2722.331 1465.133 2711.192 1493.469 2722.363 1522.34 2684.021 1567.418 2684.021 1567.418 2643.109 1584.68 2636.002 1564.446 2614.229 1565.489 2620.457 1576.618 2603.487 1588.001 2512.391 1587.739 2538.109 1565.341 2537.937 1534.79 2505.471 1517.185 2498.654 1487.994 2472.04 1478.971 2443.261 1497.014 2428.624 1473.221 2414.842 1496.963 2348.421 1502.44 2353.888 1463.362 2350.131 1443.514 2332.907 1441.217 2333.714 1414.502 2312.697 1423.232 2288.971 1409.529 2283.958 1363.974 2219.66 1305.533 2218.408 1213.611 2184.657 1160.381 2184.657 1160.381 2184.657 1160.381 2184.657 1160.381 2184.657 1160.381 2184.657 1160.381 2190.893 1140.197 2173.948 1141.572 2166.219 1100.529 2180.25 1102.06 2187.591 1083.58 2226.718 1083.58"></polygon>
            <polygon id="FR-I" points="3279.835 3519.582 3304.869 3559.801 3304.493 3610.949 3327.417 3618.578 3347.599 3655.512 3277.102 3714.574 3286.08 3725.058 3272.339 3801.488 3222.793 3795.875 3202.055 3830.953 3217.982 3836.508 3214.365 3847.567 3137.717 3890.852 3134.03 3909.684 3134.03 3909.684 3100.843 3897.348 3091.096 3865.407 3045.036 3868.614 2929.948 3946.38 2882.145 4001.704 2854.766 3990.606 2828.323 3998.61 2768.826 4046.798 2719.598 4156.923 2716.288 4268.552 2722.478 4345.056 2755.289 4356.958 2767.884 4393.196 2736.007 4399.489 2717.43 4376.278 2660.751 4379.895 2635.979 4402.918 2592.214 4409.676 2591.862 4439.383 2525.825 4439.613 2508.745 4414.652 2447.451 4393.711 2412.206 4400.469 2363.839 4435.867 2335.203 4386.664 2263.667 4366.84 2266.903 4338.289 2286.565 4326.101 2262.488 4322.007 2265.901 4309.437 2181.769 4292.335 2162.185 4316.019 2134.105 4261.203 2069.084 4266.211 2037.698 4228.59 1984.436 4228.203 1908.554 4193.879 1886.391 4230.938 1897.038 4274.321 1808.88 4274.501 1787.176 4258.845 1764.31 4282.72 1723.189 4252.806 1642.122 4273.947 1606.182 4224.049 1553.125 4199.709 1553.125 4199.709 1562 4125.904 1599.61 4103.9 1595.088 4074.279 1621.424 4043.017 1638.647 4044.443 1636.802 4022.576 1656.215 3999.873 1646.156 3985.158 1672.562 3963.748 1661.984 3916.471 1638.847 3932.936 1639.343 3908.014 1655.871 3903.709 1628.732 3851.162 1579.296 3850.873 1565.068 3833.787 1575.465 3791.182 1594.673 3776.737 1583.571 3742.69 1595.093 3741.823 1597.557 3713.792 1579.02 3699.749 1599.894 3679.683 1629.017 3684.878 1649.714 3658.003 1664.674 3672.593 1655.001 3684.593 1682.834 3700.421 1681.651 3668.983 1706.424 3649.53 1716.756 3663.405 1742.642 3639.694 1766.854 3654.784 1868.684 3611.37 1893.317 3638.393 1940.421 3596.557 1937.364 3580.858 1973.861 3583.616 1959.698 3561.331 1978.243 3558.19 1993.555 3517.784 1965.271 3500.542 1974.667 3466.159 1990.389 3483.569 2032.136 3473.631 2004.515 3387.463 2047.17 3373.197 2062.344 3326.197 2120.622 3291.955 2114.524 3264.752 2163.829 3224.022 2152.899 3162.042 2196.561 3141.401 2229.927 3148.409 2289.318 3202.331 2326.155 3175.44 2339.969 3187.831 2379.351 3176.269 2379.351 3176.269 2389.679 3226.32 2417.689 3267.722 2403.072 3312.636 2430.284 3351.488 2432.899 3335.75 2460.663 3326.387 2480.603 3339.989 2526.384 3335.02 2552.934 3301.223 2568.417 3239.817 2614.477 3193.028 2626.966 3234.833 2657.1 3225.782 2699.582 3338.052 2741.892 3220 2751.663 3211.438 2772.646 3231.555 2790.038 3195.817 2805.313 3200.079 2835.025 3176.419 2875.139 3258.981 2910.731 3249.454 2912.429 3225.149 2933.483 3225.047 2937.898 3248.129 2964.619 3243.586 3010.609 3291.422 3020.213 3362.5 3077.936 3454.273 3070.665 3496.128 3099.124 3487.601 3143.417 3522.285 3167.461 3486.781 3190.319 3482.797 3191.571 3509.934 3206.286 3513.422 3211.573 3486.676 3229.7 3484.106"></polygon>
            <polygon id="FR-J" points="3101.693 584.094 3134.429 557.192 3123.92 522.731 3098.946 522.36 3126.776 447.231 3110.703 437.942 3102.114 454.883 3062.76 400.004 3020.101 417.414 2966.316 404.258 2952.539 429.313 2935.218 394.239 2935.77 347.044 2917.642 325.56 2880.066 330.357 2886.404 310.552 2871.059 305.314 2836.723 328.236 2807.322 310.119 2789.162 237.158 2796.605 213.283 2772.496 200.412 2758.574 164.861 2689.554 185.771 2673.513 218.548 2632.843 199.579 2609.781 153.614 2579.3 152.457 2566.872 132.016 2563.647 93.469 2578.121 78.215 2547.464 0 2269.166 79.867 2240.089 111.953 2212.19 120.141 2223.492 157.172 2205.754 199.851 2210.546 285.605 2214.134 302.534 2202.894 377.647 2227.282 395.874 2203.315 398.815 2197.022 441.69 2249.616 492.784 2192 482.652 2141.627 559.894 2141.627 559.894 2166.4 556.761 2167.611 573.242 2257.938 655.593 2283.639 722.441 2270.876 721.906 2249.9 758.671 2271.636 758.671 2252.813 785.8 2252.47 818.933 2270.663 842.624 2259.881 861.015 2285.239 861.07 2258.665 912.515 2289.94 983.445 2284.755 998.59 2273.899 984.61 2256.955 988.708 2255.011 1006.239 2255.011 1006.239 2272.652 1036.079 2300.727 1042.071 2358.719 1035.923 2386.238 1017.611 2417.415 1042.451 2434.081 1034.06 2439.09 1048.97 2467.17 1030.29 2528.608 1072.622 2550.214 1062.966 2561 1086.599 2578.219 1071.454 2613.361 1096.552 2639.247 1077.599 2654.412 1091.576 2695.086 1080.299 2701.621 1091.158 2729.115 1083.693 2730.29 1066.838 2754.093 1072.623 2772.175 1102.271 2764.045 1122.322 2797.894 1161.115 2811.848 1155.888 2820.196 1177.329 2833.658 1166.665 2838.986 1196.431 2866.19 1214.509 2874.57 1206.767 2874.57 1206.767 2941.581 1121.267 2932.153 1105.982 2909.373 1109.263 2927.808 1087.982 2914.829 1065.513 2922.28 1049.185 2966.253 1044.673 2933.374 1016.071 2930.374 962.485 2976.512 939.696 3002.054 945.817 3003.585 926.961 3027.343 912.836 3066.626 937.617 3081.03 824.875 3062.1 797.629 3093.968 791.688 3097.864 767.571 3140.875 725.184 3125.633 712.832 3142.05 665.34 3134.64 616.582 3134.64 616.582 3122.044 617.981"></polygon>
            <polygon id="FR-K" points="2252.471 818.934 2252.471 818.934 2252.823 785.79 2271.646 758.665 2249.901 758.665 2270.877 721.899 2283.64 722.434 2257.93 655.582 2167.612 573.227 2166.401 556.746 2141.628 559.879 2141.628 559.879 2039.377 630.16 1866.252 671.785 1734.154 748.84 1684.886 856.242 1719.439 888.285 1764.811 889.566 1760.879 900.976 1706.361 915.808 1632.087 971.242 1584.738 980.015 1524.97 952.136 1399.304 943.667 1326.245 917.831 1288.182 921.878 1273.851 946.323 1260.249 936.319 1243.897 951.225 1256.043 912.541 1206.362 837.467 1234.367 805.69 1221.78 757.839 1149.372 757.413 1128.364 780.14 1102.376 778.742 986.592 741.843 984.538 769.253 1018.915 792.726 1021.698 825.011 1005.281 844.738 1032.452 930.929 1068.11 954.363 1100.465 1013.168 1113.207 1128.703 1120.335 1114.73 1122.598 1164.046 1100.607 1215.749 1114.528 1222.757 1116.648 1263.816 1158.391 1310.39 1170.921 1308.296 1191.135 1322.362 1115.327 1321.21 1115.327 1321.21 1144.339 1397.417 1167.72 1412.175 1191.167 1407.984 1225.99 1368.718 1289.972 1387.409 1289.972 1387.409 1368.007 1392.022 1397.752 1425.139 1413.862 1417.873 1408.019 1405.576 1431.257 1399.4 1435.464 1420.955 1484.732 1387.049 1524.155 1386.526 1539.324 1399.971 1550.454 1379.979 1567.775 1387.831 1575.501 1357.972 1590.072 1358.339 1611.645 1376.995 1601.799 1386.104 1611.195 1414.213 1644.631 1417.193 1644.521 1457.224 1661.953 1445.318 1682.478 1455.611 1712.603 1413.951 1767.019 1401.756 1795.303 1431.045 1798.716 1484.885 1832.606 1490.987 1848.569 1522.991 1884.513 1531.171 1889.657 1515.128 1919.021 1554.542 1939.8 1551.417 1939.8 1551.417 1951.143 1541.366 1930.167 1484.675 1980.335 1458.37 2001.806 1422.936 1987.93 1404.057 1998.569 1379.397 1957.06 1334.319 1957.06 1334.319 1943.981 1306.026 1962.87 1293.319 1962.87 1293.319 1967.285 1278.702 2022.429 1272.128 2032.344 1256.19 2050.472 1262.397 2052.591 1239.877 2125.969 1254.713 2139.882 1244.19 2136.26 1216.12 2170.424 1196.393 2166.152 1169.108 2184.689 1160.342 2184.689 1160.342 2190.917 1140.162 2173.98 1141.537 2166.254 1100.498 2180.273 1102.033 2187.614 1083.553 2226.754 1083.553 2255.038 1006.209 2255.038 1006.209 2256.977 988.666 2273.926 984.58 2284.778 998.56 2289.967 983.404 2258.687 912.482 2285.261 861.037 2259.903 860.99 2270.689 842.599"></polygon>
            <path d="M877.172,2151.281 L890.88,2160.894 L885.904,2178.082 L911.999,2191.234 L914.54,2219.019 L894.179,2186.773 L862.101,2169.843 L859.74,2152.804 L877.172,2151.281 Z M1289.941,1387.449 L1367.976,1392.054 L1397.721,1425.175 L1413.827,1417.909 L1407.988,1405.616 L1431.222,1399.44 L1435.432,1420.991 L1484.7,1387.081 L1524.118,1386.558 L1539.291,1400.003 L1550.421,1380.011 L1567.738,1387.863 L1575.467,1358.004 L1590.038,1358.375 L1611.612,1377.027 L1601.767,1386.14 L1611.158,1414.245 L1644.598,1417.233 L1644.487,1457.26 L1661.919,1445.35 L1682.444,1455.647 L1712.569,1413.987 L1766.985,1401.792 L1795.269,1431.081 L1798.682,1484.917 L1832.572,1491.019 L1848.535,1523.027 L1884.48,1531.203 L1889.623,1515.164 L1918.988,1554.578 L1939.767,1551.449 L1939.767,1551.449 L1980.856,1580.316 L1958.28,1583.171 L1945.194,1600.733 L1955.53,1614.706 L1938.384,1615.956 L1939.628,1633.284 L1955.251,1637.124 L1957.625,1683.562 L1944.543,1710.269 L1927.008,1703.898 L1929.791,1739.324 L1906.553,1772.933 L1866.226,1798.214 L1877.741,1810.941 L1869.847,1821.863 L1818.742,1848.996 L1795.815,1836.387 L1795.958,1874.149 L1743.319,1856.2 L1729.885,1890.083 L1739.423,1910.106 L1715.514,1961.758 L1725.748,1970.875 L1689.214,2022.047 L1681.28,2082.051 L1681.28,2082.051 L1659.641,2084.094 L1649.481,2121.656 L1632.053,2114.422 L1617.093,2138.156 L1599.763,2129.961 L1612.465,2112.996 L1598.061,2110.5 L1524.163,2119.219 L1494.729,2138.465 L1502.283,2124.11 L1490.073,2123.145 L1468.635,2133.028 L1473.051,2149.11 L1453.843,2167.219 L1388.367,2162.946 L1350.622,2178.657 L1381.345,2205.934 L1373.308,2224.266 L1419.552,2262.246 L1412.1,2289.601 L1440.977,2336.132 L1433.472,2349.827 L1448.363,2357.202 L1439,2470.082 L1451.419,2461.988 L1474.592,2476.566 L1411.06,2518.269 L1384.024,2498.281 L1337.997,2514.343 L1327.669,2508.12 L1338.66,2483.757 L1273.884,2511.136 L1273.884,2511.136 L1244.062,2511.991 L1242.605,2534.573 L1194.835,2498.331 L1151.554,2498.28 L1135.304,2467.37 L1088.516,2459.276 L1031.252,2421.616 L1015.956,2363.28 L916.701,2256.092 L913.288,2221.858 L927.692,2220.596 L973.899,2150.877 L948.185,2117.529 L880.553,2097.912 L908.698,2079.752 L906.93,2030.885 L862.43,2046.975 L835.922,2023.729 L816.371,2033.956 L777.026,2017.694 L790.661,1993.139 L771.944,1974.709 L807.152,1936.939 L807.152,1936.939 L819.121,1922.115 L855.994,1930.271 L862.574,1901.935 L909.534,1915.548 L911.736,1899.169 L932.368,1893.36 L938.072,1833.192 L975.858,1810.579 L982.189,1822.118 L1015.174,1802.903 L1084.828,1802.442 L1098.013,1774.594 L1149.854,1754.254 L1147.837,1737.566 L1228.515,1767.937 L1260.351,1670.574 L1308.539,1650.722 L1279.072,1513.929 L1298.558,1481.284 L1289.941,1387.449 Z" id="FR-L"></path>
            <polygon id="FR-M" points="3520.617 4026.461 3531.779 3988.234 3509.265 3956.722 3481.218 3972.316 3419.117 3974.125 3391.325 3926.289 3342.131 3924.137 3353.571 3937.559 3340.362 3939.504 3344.675 3949.711 3359.562 3959.309 3344.954 3972.848 3256.444 3957.305 3259.365 3927.867 3239.429 3913.496 3134.043 3909.684 3134.043 3909.684 3137.73 3890.844 3214.377 3847.567 3217.994 3836.508 3202.068 3830.953 3222.806 3795.875 3272.352 3801.488 3286.101 3725.058 3277.123 3714.574 3347.612 3655.512 3327.43 3618.578 3304.506 3610.949 3304.882 3559.801 3279.848 3519.582 3279.848 3519.582 3280.265 3490.766 3328.272 3498.864 3338.854 3540.403 3422.659 3501.571 3439.575 3516.145 3459.896 3498.036 3454.822 3538.227 3525.418 3546.887 3535.124 3575.465 3560.167 3592.848 3590.268 3586.422 3611.203 3558.047 3625.615 3567.625 3640.648 3555.684 3640.714 3521.426 3613.371 3502.387 3620.778 3489.157 3573.433 3487.126 3551.589 3469.138 3547.645 3444.732 3575.037 3438.908 3561.084 3408.83 3615.36 3422.295 3632.717 3407.326 3609.45 3387.096 3625.45 3334.651 3676.42 3333.874 3690.685 3315.827 3679.727 3308.03 3689.498 3282.1 3732.669 3281.62 3742.833 3271.308 3732.12 3259.933 3755.846 3244.882 3769.342 3254.456 3796.308 3230.839 3835.754 3236.909 3851.108 3226.147 3873.467 3235.444 3862.377 3164.971 3820.803 3156.444 3835.133 3105.132 3865.651 3103.804 3876.61 3129.831 3906.596 3138.769 3927.268 3110.581 3969.122 3110.729 3969.122 3110.729 3983.837 3155.159 4008.471 3157.901 4010.795 3211.276 4049.972 3238.237 4075.056 3232.507 4105.222 3251.429 4097.365 3268.191 4123.883 3319.781 4084.248 3322.761 4086.057 3350.831 4046.986 3394.632 4079.305 3442.558 4059.95 3446.578 4058.076 3475.262 4099.577 3536.633 4162.382 3553.274 4221.421 3594.79 4335.187 3566.04 4342.593 3630.071 4270.026 3711.759 4282.13 3755.197 4215.503 3788.892 4207.36 3791.771 4152.215 3817.322 4139.973 3849.029 4131.822 3856.638 4111.026 3873.759 4084.657 3870.411 4059.778 3924.411 4009.021 3927.227 3999.037 3962.95 3949.768 3999.016 3992.391 4001.684 3974.885 4048.825 3945.104 4038.552 3922.565 4056.763 3883.633 4059.849 3876.488 4087.443 3814.912 4073.869 3803.879 4115.713 3783.002 4114.721 3793.133 4090.85 3757.264 4091.381 3722.997 4069.35 3709.117 4079.901 3732.286 4096.268 3690.679 4104.862 3678.329 4095.893 3683.648 4073.87 3644.266 4060.374 3641.066 4043.171 3618.593 4039.987 3612.431 4052.632 3588.599 4026.722"></polygon>
        </g>
    </g>
</svg>