<?xml version="1.0" encoding="UTF-8" standalone="no"?>
<!-- Created with Inkscape (http://www.inkscape.org/) -->

<svg
   width="590"
   height="220"
   viewBox="0 0 156.10416 58.208335"
   version="1.1"
   id="svg5"
   inkscape:version="1.1 (c68e22c387, 2021-05-23)"
   sodipodi:docname="texto-fundo-2.svg"
   xmlns:inkscape="http://www.inkscape.org/namespaces/inkscape"
   xmlns:sodipodi="http://sodipodi.sourceforge.net/DTD/sodipodi-0.dtd"
   xmlns="http://www.w3.org/2000/svg"
   xmlns:svg="http://www.w3.org/2000/svg">
  <sodipodi:namedview
     id="namedview7"
     pagecolor="#ffffff"
     bordercolor="#666666"
     borderopacity="1.0"
     inkscape:pageshadow="2"
     inkscape:pageopacity="0.0"
     inkscape:pagecheckerboard="0"
     inkscape:document-units="mm"
     showgrid="false"
     inkscape:zoom="2.024018"
     inkscape:cx="435.02579"
     inkscape:cy="163.78313"
     inkscape:window-width="1366"
     inkscape:window-height="705"
     inkscape:window-x="-8"
     inkscape:window-y="-8"
     inkscape:window-maximized="1"
     inkscape:current-layer="layer1"
     units="px"
     width="590px" />
  <defs
     id="defs2" />
  <g
     inkscape:label="Camada 1"
     inkscape:groupmode="layer"
     id="layer1">
    <g
       aria-label="RELAXANTE"
       id="g6850"
       style="font-size:22.5226px;line-height:1.25;font-family:'Segoe UI';-inkscape-font-specification:'Segoe UI';letter-spacing:0px;word-spacing:0px;fill:none;stroke:#e1e1e1;stroke-width:0.49246264;stroke-miterlimit:4;stroke-dasharray:none;stroke-opacity:1"
       transform="matrix(1.0242079,0,0,1.1273279,-83.603661,-260.01708)">
      <path
         d="m 109.20455,266.51058 5.33785,6.95948 h -5.49551 l -4.16668,-6.53155 h -0.0451 v 6.53155 h -4.41443 v -16.98204 h 6.59912 q 2.65767,0 4.2793,1.30631 1.62163,1.30631 1.62163,3.91893 0,1.82434 -0.991,3.15317 -0.96847,1.32883 -2.72523,1.64415 z m -4.36939,-6.64417 v 4.23425 h 0.42793 q 3.06308,0 3.06308,-2.11712 0,-2.11713 -3.06308,-2.11713 z"
         style="font-family:'Futura LT';-inkscape-font-specification:'Futura LT';fill:none;stroke:#e1e1e1;stroke-width:0.49246264;stroke-miterlimit:4;stroke-dasharray:none;stroke-opacity:1"
         id="path6832" />
      <path
         d="m 125.39826,260.22677 h -5.24777 v 2.83785 h 4.9775 v 3.73875 h -4.9775 v 2.92794 h 5.24777 v 3.73875 h -9.66219 v -16.98204 h 9.66219 z"
         style="font-family:'Futura LT';-inkscape-font-specification:'Futura LT';fill:none;stroke:#e1e1e1;stroke-width:0.49246264;stroke-miterlimit:4;stroke-dasharray:none;stroke-opacity:1"
         id="path6834" />
      <path
         d="m 132.53791,256.48802 v 13.24329 h 5.29281 v 3.73875 h -9.70724 v -16.98204 z"
         style="font-family:'Futura LT';-inkscape-font-specification:'Futura LT';fill:none;stroke:#e1e1e1;stroke-width:0.49246264;stroke-miterlimit:4;stroke-dasharray:none;stroke-opacity:1"
         id="path6836" />
      <path
         d="m 149.67758,270.5196 h -6.0811 l -1.17117,2.95046 h -4.6847 l 6.53155,-16.98204 h 4.81984 l 6.39641,16.98204 h -4.70722 z m -1.19369,-3.37839 -1.80181,-5.40542 h -0.0451 l -1.82433,5.40542 z"
         style="font-family:'Futura LT';-inkscape-font-specification:'Futura LT';fill:none;stroke:#e1e1e1;stroke-width:0.49246264;stroke-miterlimit:4;stroke-dasharray:none;stroke-opacity:1"
         id="path6838" />
      <path
         d="m 161.88479,264.39345 -5.42794,-7.90543 h 5.42794 l 2.5901,4.39191 2.5901,-4.39191 h 5.42795 l -5.42795,7.90543 6.28381,9.07661 h -5.31534 l -3.55857,-5.54056 -3.89641,5.54056 h -5.33785 z"
         style="font-family:'Futura LT';-inkscape-font-specification:'Futura LT';fill:none;stroke:#e1e1e1;stroke-width:0.49246264;stroke-miterlimit:4;stroke-dasharray:none;stroke-opacity:1"
         id="path6840" />
      <path
         d="m 185.03801,270.5196 h -6.0811 l -1.17118,2.95046 h -4.6847 l 6.53156,-16.98204 h 4.81983 l 6.39642,16.98204 h -4.70722 z m -1.1937,-3.37839 -1.8018,-5.40542 h -0.0451 l -1.82433,5.40542 z"
         style="font-family:'Futura LT';-inkscape-font-specification:'Futura LT';fill:none;stroke:#e1e1e1;stroke-width:0.49246264;stroke-miterlimit:4;stroke-dasharray:none;stroke-opacity:1"
         id="path6842" />
      <path
         d="m 192.22268,273.47006 v -16.98204 h 4.41443 l 8.08561,10.38292 h 0.0451 v -10.38292 h 4.41443 v 16.98204 h -4.41443 l -8.08561,-10.40544 h -0.0451 v 10.40544 z"
         style="font-family:'Futura LT';-inkscape-font-specification:'Futura LT';fill:none;stroke:#e1e1e1;stroke-width:0.49246264;stroke-miterlimit:4;stroke-dasharray:none;stroke-opacity:1"
         id="path6844" />
      <path
         d="m 218.82185,260.22677 v 13.24329 h -4.41443 v -13.24329 h -3.64867 v -3.73875 h 11.71176 v 3.73875 z"
         style="font-family:'Futura LT';-inkscape-font-specification:'Futura LT';fill:none;stroke:#e1e1e1;stroke-width:0.49246264;stroke-miterlimit:4;stroke-dasharray:none;stroke-opacity:1"
         id="path6846" />
      <path
         d="m 233.73178,260.22677 h -5.24777 v 2.83785 h 4.9775 v 3.73875 h -4.9775 v 2.92794 h 5.24777 v 3.73875 h -9.6622 v -16.98204 h 9.6622 z"
         style="font-family:'Futura LT';-inkscape-font-specification:'Futura LT';fill:none;stroke:#e1e1e1;stroke-width:0.49246264;stroke-miterlimit:4;stroke-dasharray:none;stroke-opacity:1"
         id="path6848" />
    </g>
    <rect
       style="fill:none;fill-opacity:0.493392;stroke:none;stroke-width:0.776801;stroke-linecap:round;stroke-linejoin:round;stroke-miterlimit:4;stroke-dasharray:none;stroke-opacity:1;paint-order:markers stroke fill"
       id="rect6852"
       width="155.87123"
       height="28.35684"
       x="-0.0014769429"
       y="29.370348" />
  </g>
</svg>
