<svg id="Calque_1" data-name="Calque 1" xmlns="http://www.w3.org/2000/svg" viewBox="0 0 311 300"><defs><style>.cls-1{fill:#fff;}.cls-2{fill:none;}.cls-3{fill:#282828;}</style></defs><title>Logo</title><circle class="cls-1" cx="155.5" cy="150.62" r="143.53"/><path class="cls-2" d="M199.72,206.41a15.28,15.28,0,0,0-6.51,6.37,19.34,19.34,0,0,0-2.4,9.61,14.74,14.74,0,0,0,4.32,11.08c2.87,2.75,6.67,4.15,11.43,4.15a9.33,9.33,0,0,0,7.61-3.24c1.8-2.15,2.71-5.18,2.71-9.08a14,14,0,0,0-3.45-9.82C211.11,213,206.56,209.93,199.72,206.41Z"/><path class="cls-2" d="M166.61,252.87h-.51V259h.49c2.08,0,3.55-.65,3.55-3.13S168.61,252.87,166.61,252.87Z"/><path class="cls-2" d="M114.31,252.92h-.68v6.18h.77c2.22,0,3.43-.51,3.43-3.17S116.39,252.92,114.31,252.92Z"/><path class="cls-2" d="M121.36,194.58a43.73,43.73,0,0,0,9,5.25c4.62-2.29,6.91-6.3,6.91-12a11.89,11.89,0,0,0-3.41-8.73,11.54,11.54,0,0,0-8.63-3.5,10.12,10.12,0,0,0-7,2.47,8.43,8.43,0,0,0-2.71,6.53C115.55,188.33,117.49,191.66,121.36,194.58Z"/><path class="cls-2" d="M125.47,237.63a9.37,9.37,0,0,0,7.63-3.24c1.8-2.15,2.71-5.18,2.71-9.08a14,14,0,0,0-3.45-9.82q-3.47-3.78-13.67-9.08a15,15,0,0,0-6.51,6.37,19.59,19.59,0,0,0-2.4,9.61c0,4.6,1.42,8.31,4.29,11.08S120.71,237.63,125.47,237.63Z"/><path class="cls-2" d="M202.45,194.58a43.56,43.56,0,0,0,9,5.25c4.62-2.29,6.93-6.3,6.93-12a12,12,0,0,0-3.41-8.73,11.5,11.5,0,0,0-8.63-3.5,10.12,10.12,0,0,0-7,2.47,8.43,8.43,0,0,0-2.71,6.53C196.62,188.33,198.55,191.66,202.45,194.58Z"/><path class="cls-3" d="M155.5,5C75.56,5,10.5,70,10.5,150s65.06,145,145,145,145-65.06,145-145S235.44,5,155.5,5ZM70.21,261.55l-1.07-.84A141.8,141.8,0,0,1,43.68,234.9l-.14-.16v-.21a55.6,55.6,0,0,0-.4-5.76l0,0,0-.19a294.49,294.49,0,0,1-.19-39.67,179.83,179.83,0,0,1,4.9-33.06c3.08-11.83,7.4-21,12.88-27.32l0,0,3.34-3.36a29.94,29.94,0,0,1,5.2-3.69l1-.54ZM234.65,266a140.18,140.18,0,0,1-158.11.12l-.28-.19.86-149.08.44-.16a26.83,26.83,0,0,1,3.15-.93,23.29,23.29,0,0,1,5.39-.61,37.76,37.76,0,0,1,6.09.54l.09,0,.07,0h.19c9.85,1.75,20.6,7.12,30.29,15.1a89.59,89.59,0,0,1,9.17,8.7,97.77,97.77,0,0,1,16.59,24.92h14A99.8,99.8,0,0,1,179,139.49a87.41,87.41,0,0,1,8.61-8.31c9.73-8.19,20.7-13.7,30.89-15.47h.35l.14-.07.09,0a39.58,39.58,0,0,1,6-.51,24.42,24.42,0,0,1,5.37.61,26.83,26.83,0,0,1,3.15.93l.44.16v.47l.86,148.5ZM76.89,112.35V109c0-30.47,6.86-55.51,18.34-67,4.6-4.6,9.82-6.93,15.49-6.93h0c7.7,0,14.37,5,19.88,14.77,4.48,8,8.24,19.23,11.15,33.46v0l4.85,34.18c.68,7.3,1.19,14.82,1.49,22.33.3,7,.33,11.48.33,11.53v2.38l-1.19-2a108.27,108.27,0,0,0-8-11.43c-8.24-10.31-17.92-18.41-28-23.4a55.35,55.35,0,0,0-24.71-6H86a30.51,30.51,0,0,0-5.06.49q-1.54.28-3.08.7Zm85.78,41.49v-2.38s0-4.5.33-11.53c.33-7.51.84-15,1.49-22.33v0l4.88-34.21c2.92-14.23,6.67-25.5,11.15-33.46,5.51-9.78,12.2-14.75,19.88-14.77h0c5.69,0,10.9,2.33,15.52,6.93,11.48,11.46,18.34,36.5,18.34,67l0,3.38-1-.28q-1.54-.42-3.08-.7a33.23,33.23,0,0,0-5.06-.49h-.61a55.61,55.61,0,0,0-24.69,6c-10.1,5-19.79,13.09-28,23.4a112,112,0,0,0-8,11.43ZM268,228.53l0,.19,0,0c-.09.56-.26,3-.35,5.48v.21l-.12.16A141.36,141.36,0,0,1,242,260.57l-1.07.84,0-140.54,1,.54c7.77,4.27,14,12.6,18.43,24.73,3.55,9.66,6,21.72,7.35,35.91A293.18,293.18,0,0,1,268,228.53ZM21.93,186c.3-25.57,5.55-49.68,14.75-67.88,8.33-16.5,19.23-26.86,30-28.56l.07-3A44.9,44.9,0,0,0,44.36,96.9a64.64,64.64,0,0,0-15.1,19.6c-9.57,18.29-11.81,38.22-12.34,45.95l-1.33,0c-.37-4.18-.56-8.35-.56-12.41C15,72.61,78,9.61,155.48,9.61s140.45,63,140.45,140.45c0,3.29-.12,6.7-.37,10.15l-1.31,0c-2.05-16.26-7.12-32.67-13.91-45a66.64,66.64,0,0,0-14.68-18.67,42.75,42.75,0,0,0-20.81-9.94h0l-.42-.07.07,3c10.76,1.7,21.68,12.06,30,28.56,9.19,18.2,14.42,42.33,14.75,67.88h0c0,.14,0,.3,0,.47,0,1,.19,3.2.33,5.2v.12l0,.12a139.7,139.7,0,0,1-14,31l-1.31,2.17.09-2.52c0-1.17.07-2.26.09-2.87a4.37,4.37,0,0,1,0-.49c2.61-30.43.4-55-6.65-73.11-5.69-14.65-14.7-25.39-26.79-31.9l-.35-.19v-3.27c0-28.35-4.53-49.54-13.46-62.91C218.57,35,207.86,32.29,200.37,32.29c-12.27,0-22.24,9.4-29.59,28-5.55,14-9.57,33-11.9,56.31-.75,7.56-1.33,15.47-1.68,23.54l0,.63H154l0-.63c-.35-8.07-.93-16-1.68-23.54-2.33-23.36-6.32-42.31-11.9-56.31-7.35-18.55-17.31-28-29.61-28C103.3,32.29,92.57,35,84,47.88,75,61.27,70.52,82.44,70.52,110.79v3.27l-.35.19c-12.06,6.51-21.09,17.24-26.79,31.92-7,18.08-9.26,42.68-6.65,73.08v0c0,.63.14,2.26.28,3.83l.23,2.75-1.45-2.36A140.57,140.57,0,0,1,22,193.83l0-.09v-.09c0-1.8,0-4.08,0-5.67v-1.84"/><path class="cls-3" d="M88,89.55A51,51,0,0,1,110,97.16c7.12,4.39,13.88,10.73,20.16,18.81a136.65,136.65,0,0,1,11.74,18.18c.75,1.35,1.45,2.68,2.12,4h.07c-.3-3-1-9.57-1.19-11.62l-.12-1.05a80.8,80.8,0,0,0-5.32-8.68A78.71,78.71,0,0,0,115.36,95.6C105.1,89.11,93.64,85.49,83,85.35l-.3,3.94c1.19,0,2.31,0,3.45.14Z"/><path class="cls-3" d="M99.36,236.82V176.47l4.11-3.76-.89-1.38c-5.39,4.71-11.08,9.33-18.34,14.82v2l4.9-3.59v52.29H85.5v1.68h20v-1.68H99.36Z"/><path class="cls-3" d="M111.28,234.79c3.43,3,7.91,4.57,13.37,4.57a19.49,19.49,0,0,0,14.28-5.6,19,19,0,0,0,5.67-14.12q0-11.41-12.72-18.83c6-2.52,9-6.74,9-12.72a13.13,13.13,0,0,0-4.41-10.22,16.08,16.08,0,0,0-11.22-4c-5.09,0-9.15,1.52-12.23,4.53a15.7,15.7,0,0,0-5,11.74q0,9.49,9.12,15.07-8.68,5.6-10.52,13.39a19.3,19.3,0,0,0-.51,4.39,16.68,16.68,0,0,0,.51,4.25A14.7,14.7,0,0,0,111.28,234.79Zm4.27-50.17a8.43,8.43,0,0,1,2.71-6.53,10,10,0,0,1,7-2.47,11.57,11.57,0,0,1,8.63,3.5,12,12,0,0,1,3.41,8.73c0,5.72-2.29,9.71-6.91,12a44.35,44.35,0,0,1-9-5.25C117.49,191.66,115.55,188.33,115.55,184.62Zm-3.41,28.16a15.15,15.15,0,0,1,6.51-6.37q10.22,5.29,13.67,9.08a14,14,0,0,1,3.45,9.82c0,3.9-.89,6.91-2.71,9.08a9.37,9.37,0,0,1-7.63,3.24c-4.74,0-8.56-1.4-11.43-4.15s-4.29-6.49-4.29-11.08A19.67,19.67,0,0,1,112.14,212.78Z"/><path class="cls-3" d="M166,239.36A16.75,16.75,0,0,0,179.23,233a22.82,22.82,0,0,0,5.46-15.4,22.14,22.14,0,0,0-4.6-14.26q-4.62-5.78-11.34-5.76a11.36,11.36,0,0,0-6.37,1.68,20.36,20.36,0,0,0-5.37,6l1.31,1.1a22.28,22.28,0,0,1,4.81-5.6,8.23,8.23,0,0,1,4.92-1.4,5.06,5.06,0,0,1,4.81,2.47q1.72,3.15,1.7,15.91,0,12.15-1.66,16c-1.1,2.59-3.34,3.9-6.67,3.9-4.48,0-7.28-1.49-8.42-4.43-.93-2.38-1.4-10.17-1.4-23.33,0-12.81.28-21.14.79-25,.86-6.18,3.73-9.29,8.56-9.29q6.69,0,11.88,7.37v4.46h1.7l-.42-14.54h-1.49v3.45a23.71,23.71,0,0,0-10.52-2.47q-9.42,0-15,9.36t-5.6,24.87q0,14.32,5.37,22.77T166,239.36Z"/><path class="cls-3" d="M220.53,206.74a31.61,31.61,0,0,0-7.58-5.93c3.62-1.52,6.14-3.64,7.58-6.39a18.82,18.82,0,0,0,1.68-6.72,13.39,13.39,0,0,0-1.68-6,13.12,13.12,0,0,0-3-3.8,16.08,16.08,0,0,0-11.22-4q-7.6,0-12.23,4.53a15.72,15.72,0,0,0-5,11.74q0,9.49,9.12,15.07-11,7.11-11,17.78a15.11,15.11,0,0,0,5.16,11.81c3.43,3,7.91,4.57,13.37,4.57a19.49,19.49,0,0,0,14.28-5.6c.16-.16.33-.35.51-.51,0,0,5.37-5.93,5.37-13C225.9,211.1,220.53,206.74,220.53,206.74Zm-23.92-22.12a8.43,8.43,0,0,1,2.71-6.53,10.08,10.08,0,0,1,7-2.47,11.57,11.57,0,0,1,8.63,3.5,12,12,0,0,1,3.41,8.73q0,8.58-6.93,12a43.56,43.56,0,0,1-9-5.25C198.55,191.66,196.62,188.33,196.62,184.62Zm17.55,49.77a9.33,9.33,0,0,1-7.61,3.24c-4.74,0-8.56-1.4-11.43-4.15S190.8,227,190.8,222.4a19.41,19.41,0,0,1,2.4-9.61,15.28,15.28,0,0,1,6.51-6.37c6.81,3.52,11.39,6.56,13.67,9.08a14,14,0,0,1,3.45,9.82C216.87,229.21,216,232.24,214.16,234.39Z"/><path class="cls-3" d="M115,249.63h-5.11V270h3.76v-7.63h1.87c3.92,0,6.16-2.12,6.16-6.44C121.67,251.33,119,249.63,115,249.63Zm-.58,9.47h-.77v-6.18h.68c2.1,0,3.52.37,3.52,3S116.62,259.1,114.41,259.1Z"/><polygon class="cls-3" points="124.02 270.04 133.99 270.04 133.99 266.57 127.75 266.57 127.75 261.06 133.75 261.06 133.75 257.58 127.75 257.58 127.75 253.08 133.99 253.08 133.99 249.63 124.02 249.63 124.02 270.04"/><path class="cls-3" d="M140.43,254.74a2.37,2.37,0,0,1,2.36-2.31,3.44,3.44,0,0,1,2.89,1.68l1.77-2.75a7.69,7.69,0,0,0-5.27-2.29c-3.24,0-5.62,2.71-5.62,6.11,0,3.17,1.82,4.48,4.29,5.58,1.52.63,3.34,1.21,3.34,3.34,0,1.56-.93,2.94-2.47,2.94a4,4,0,0,1-3.48-3l-2.43,2.52c1.33,2.36,3.27,4,5.93,4,3.94,0,6.32-2.89,6.32-7C148.08,256.77,140.43,258.19,140.43,254.74Z"/><polygon class="cls-3" points="149.32 253.08 153.19 253.08 153.19 270.04 156.97 270.04 156.97 253.08 160.84 253.08 160.84 249.63 149.32 249.63 149.32 253.08"/><path class="cls-3" d="M173.89,255.76c0-4.34-2.64-6.14-6.44-6.14h-5.09V270h3.76v-8.21h0l4.67,8.21h4.55l-5.44-8.61C172.51,261,173.89,258.38,173.89,255.76Zm-7.3,3.27h-.49v-6.14h.51c2,0,3.52.49,3.52,3S168.66,259,166.58,259Z"/><rect class="cls-3" x="176.73" y="249.63" width="3.76" height="20.42"/><polygon class="cls-3" points="196.26 263.37 196.22 263.37 186.07 249.09 183.34 249.09 183.34 270.04 187.12 270.04 187.12 256.18 187.16 256.18 197.29 270.44 200.02 270.44 200.02 249.63 196.26 249.63 196.26 263.37"/><path class="cls-3" d="M195.82,95.57a78.79,78.79,0,0,0-22.17,21.19,80.8,80.8,0,0,0-5.32,8.68l-.12,1.05c-.28,2.64-.91,8.73-1.19,11.64h.07c.7-1.35,1.4-2.68,2.12-4A135.52,135.52,0,0,1,181,116a77.89,77.89,0,0,1,20.16-18.81,50.73,50.73,0,0,1,27.32-7.89l-.33-3.94C217.55,85.45,206.09,89.09,195.82,95.57Z"/></svg>